<?xml version="1.0" encoding="UTF-8"?>
<svg version="1.1" xmlns="http://www.w3.org/2000/svg" width="512" height="512">
<path d="M0 0 C1.5778125 0.8971875 1.5778125 0.8971875 3.1875 1.8125 C13.08823429 9.51307112 18.55181735 18.14071577 20.375 30.75 C20.6047299 32.83108259 20.82101852 34.91394003 21 37 C21.87398438 37.18006592 21.87398438 37.18006592 22.765625 37.36376953 C56.6470167 44.44237004 86.95786057 58.30196543 107 88 C133.584434 128.88184535 135.7913521 179.45706881 136.44528198 226.72998047 C136.5377523 233.31234078 136.64591488 239.89444127 136.75390625 246.4765625 C136.77477798 247.75452698 136.79564972 249.03249146 136.81715393 250.34918213 C134.84000407 300.38781944 134.84000407 300.38781944 153.5859375 344.7578125 C154.38257813 345.49773437 155.17921875 346.23765625 156 347 C156.721875 347.70125 157.44375 348.4025 158.1875 349.125 C164.67165549 353.44777033 171.91871185 354.17431644 179.5 354.9375 C191.61733643 356.22584886 199.64302893 359.76410611 208 369 C215.55632211 379.38213678 217.14316815 389.44310585 216 402 C214.05002364 412.12013046 207.91166221 420.5113464 199.5625 426.4375 C191.31289617 431.845753 182.85228019 432.42971279 173.22827148 432.34057617 C171.35361458 432.34123329 171.35361458 432.34123329 169.44108582 432.34190369 C166.04068203 432.34018128 162.64083593 432.3252166 159.24053073 432.30418181 C155.67714021 432.28532939 152.11374093 432.28365787 148.55030823 432.28010559 C141.81442027 432.27081012 135.07867974 432.24623053 128.34285647 432.21605712 C120.66929588 432.18243491 112.99572797 432.16600752 105.32211196 432.15097082 C89.5479895 432.11967847 73.77401382 432.06696708 58 432 C57.87520264 433.22614014 57.75040527 434.45228027 57.62182617 435.71557617 C57.44997024 437.34556814 57.27783637 438.97553081 57.10546875 440.60546875 C57.02421753 441.41109253 56.94296631 442.21671631 56.85925293 443.04675293 C54.79263349 462.34338245 44.26915118 479.60043347 29.57421875 492.08984375 C10.38538876 506.3285962 -10.84008744 510.31533016 -34.34277344 507.74365234 C-53.35753056 504.68459711 -69.97777964 492.50574703 -81.4375 477.5 C-89.51741496 465.60976724 -94.58495597 453.11187651 -95.54760742 438.74951172 C-95.6335466 437.48630096 -95.71948578 436.22309021 -95.80802917 434.92160034 C-95.90305473 433.47540817 -95.90305473 433.47540817 -96 432 C-96.64953801 432.00368717 -97.29907602 432.00737434 -97.968297 432.01117325 C-113.81131439 432.09971268 -129.65424509 432.16580084 -145.49744892 432.20724869 C-153.15927864 432.22782803 -160.82094268 432.25585938 -168.48266602 432.30175781 C-175.16471464 432.34176813 -181.8466432 432.36746641 -188.5288083 432.37635398 C-192.06332059 432.3815449 -195.59748957 432.39364707 -199.13189125 432.42292023 C-203.08839727 432.45542017 -207.04457488 432.45595035 -211.0012207 432.45410156 C-212.1585672 432.46848267 -213.3159137 432.48286377 -214.5083313 432.49768066 C-226.19003751 432.43886576 -235.49555802 429.1224065 -244 421 C-252.07339078 412.33191749 -254.60642319 403.30231317 -254.47265625 391.68847656 C-254.09244792 381.81545814 -251.05239632 373.11254469 -244 366 C-236.03992771 359.46089929 -228.5084254 355.81085159 -218.25 355.0625 C-207.03506455 353.9971839 -197.71084992 351.76387348 -190 343 C-170.11577979 317.93268921 -175.41622181 273.90912128 -175 243.9375 C-173.24896077 118.42075524 -173.24896077 118.42075524 -134 74 C-133.38898438 73.30519531 -132.77796875 72.61039062 -132.1484375 71.89453125 C-113.3461635 51.85210726 -85.5781395 41.28679669 -59 37 C-58.92523438 36.04480469 -58.85046875 35.08960938 -58.7734375 34.10546875 C-57.86280125 25.15087898 -56.10415544 18.61614816 -51 11 C-50.4225 10.0925 -49.845 9.185 -49.25 8.25 C-36.4898105 -4.5101895 -16.27881177 -9.35303499 0 0 Z " fill="#FFE3D7" transform="translate(255,4)"/>
<path d="M0 0 C0.80946579 0.1869342 1.61893158 0.37386841 2.45292664 0.56646729 C32.04631901 7.79510013 57.94765299 25.49530945 74.15234375 51.375 C98.36530637 92.27213455 100.80363489 140.34499786 101.44528198 186.72998047 C101.5377523 193.31234078 101.64591488 199.89444127 101.75390625 206.4765625 C101.78521385 208.39350922 101.78521385 208.39350922 101.81715393 210.34918213 C102.11824164 245.91684718 102.11824164 245.91684718 107.07421875 281.046875 C107.25964233 281.9136084 107.44506592 282.7803418 107.6361084 283.67333984 C108.08783466 285.78285057 108.54350085 287.89151698 109 290 C81.30516685 290.11690801 53.6103708 290.20502493 25.91534042 290.25906086 C13.05545543 290.28481986 0.19572395 290.3199266 -12.6640625 290.37719727 C-23.87533796 290.42710245 -35.08650221 290.45930775 -46.29788566 290.47044247 C-52.23183445 290.47694909 -58.16546518 290.49219399 -64.09931183 290.52865028 C-69.69059204 290.56272188 -75.28142475 290.5730303 -80.87279892 290.56553841 C-82.91895611 290.56690796 -84.96512908 290.57677338 -87.01119614 290.59602737 C-101.9753393 290.72987341 -113.53447452 289.40283808 -124.8046875 278.53125 C-132.98137719 269.1033231 -135.32632176 259.28325522 -135.18286133 247.17578125 C-135.17589737 245.57109482 -135.17589737 245.57109482 -135.16879272 243.93399048 C-135.15041334 240.39333815 -135.11681845 236.85302656 -135.08203125 233.3125 C-135.06342956 230.81518929 -135.04534712 228.31787467 -135.02775574 225.82055664 C-134.98821496 220.56486267 -134.94106684 215.30928741 -134.88842773 210.05371094 C-134.83537346 204.7418954 -134.79415684 199.43016898 -134.76342773 194.11816406 C-134.31180174 116.13189618 -134.31180174 116.13189618 -128 83 C-127.82742676 82.05705078 -127.65485352 81.11410156 -127.47705078 80.14257812 C-122.65104888 54.05473324 -114.38601772 22.30597735 -91.328125 6.125 C-78.28308731 -2.33664607 -78.28308731 -2.33664607 -70.86547852 -2.47998047 C-69.67306046 -2.5094577 -68.4806424 -2.53893494 -67.25209045 -2.56930542 C-65.33486427 -2.59300705 -65.33486427 -2.59300705 -63.37890625 -2.6171875 C-62.03334608 -2.64171247 -60.68780045 -2.66704668 -59.3422699 -2.69314575 C-56.52226417 -2.74442701 -53.7023539 -2.78508493 -50.88208008 -2.81835938 C-47.31161134 -2.86142811 -43.74232163 -2.93180751 -40.17248631 -3.01067924 C-37.39006965 -3.06876623 -34.6075673 -3.11114588 -31.82481194 -3.14926529 C-29.8825279 -3.17868593 -27.94045752 -3.22129778 -25.99842834 -3.26437378 C-16.9234621 -3.34290538 -8.79665233 -2.07309561 0 0 Z " fill="#FFF7F4" transform="translate(290,44)"/>
<path d="M0 0 C0.61488281 0.57492187 1.22976563 1.14984375 1.86328125 1.7421875 C9.22976259 9.34527959 12.4619611 18.08796474 12.5625 28.5625 C12.32897622 40.52102831 8.47545297 49.43438263 0 58 C-9.37677947 65.88048488 -18.79478626 67.45150543 -30.77172852 67.34057617 C-32.64638542 67.34123329 -32.64638542 67.34123329 -34.55891418 67.34190369 C-37.95931797 67.34018128 -41.35916407 67.3252166 -44.75946927 67.30418181 C-48.32285979 67.28532939 -51.88625907 67.28365787 -55.44969177 67.28010559 C-62.18557973 67.27081012 -68.92132026 67.24623053 -75.65714353 67.21605712 C-83.33070412 67.18243491 -91.00427203 67.16600752 -98.67788804 67.15097082 C-114.4520105 67.11967847 -130.22598618 67.06696708 -146 67 C-146.12479736 68.22614014 -146.24959473 69.45228027 -146.37817383 70.71557617 C-146.55002976 72.34556814 -146.72216363 73.97553081 -146.89453125 75.60546875 C-146.97578247 76.41109253 -147.05703369 77.21671631 -147.14074707 78.04675293 C-149.20736651 97.34338245 -159.73084882 114.60043347 -174.42578125 127.08984375 C-193.61461124 141.3285962 -214.84008744 145.31533016 -238.34277344 142.74365234 C-257.35753056 139.68459711 -273.97777964 127.50574703 -285.4375 112.5 C-294.99820882 98.43066217 -299.48583453 83.91604407 -300 67 C-301.45019531 67.05220703 -301.45019531 67.05220703 -302.9296875 67.10546875 C-316.0292375 67.37783563 -327.07857349 65.31558127 -337.04296875 56.11328125 C-344.99908732 47.47860246 -348.494792 37.78739295 -348.24609375 26.0546875 C-347.35716079 15.02063073 -341.90292805 6.11706192 -333.984375 -1.43359375 C-324.84966129 -8.64426343 -314.97930194 -10.29863876 -303.71192932 -10.28520203 C-302.01705011 -10.29494898 -302.01705011 -10.29494898 -300.28793091 -10.30489284 C-296.50516305 -10.32422458 -292.72250891 -10.32945068 -288.93969727 -10.3347168 C-286.2257344 -10.34456085 -283.51178731 -10.35736599 -280.7978363 -10.37002563 C-274.1913584 -10.39903284 -267.58489116 -10.41749899 -260.97836793 -10.43236574 C-253.27291439 -10.45008334 -245.56750854 -10.4781068 -237.8620882 -10.50649796 C-224.10021664 -10.55683738 -210.33833322 -10.59759146 -196.57641602 -10.63305664 C-183.24988755 -10.6674063 -169.92340572 -10.70881979 -156.59692383 -10.75805664 C-155.36767495 -10.76259707 -155.36767495 -10.76259707 -154.11359275 -10.76722922 C-153.29545755 -10.77025126 -152.47732236 -10.7732733 -151.63439518 -10.77638692 C-136.43514339 -10.83245962 -121.2358756 -10.88154099 -106.03659036 -10.92758697 C-100.67845081 -10.94398596 -95.32032083 -10.96247634 -89.96219063 -10.98166466 C-83.41621112 -11.00497753 -76.87023299 -11.02426247 -70.3242277 -11.03869756 C-66.99061307 -11.04612351 -63.65704436 -11.05569061 -60.32344437 -11.06874657 C-11.85630976 -11.25433377 -11.85630976 -11.25433377 0 0 Z " fill="#FFF7F4" transform="translate(459,369)"/>
<path d="M0 0 C50.82 0 101.64 0 154 0 C151.27565491 24.51910581 144.74373089 43.79743116 125.57421875 60.08984375 C106.38538876 74.3285962 85.15991256 78.31533016 61.65722656 75.74365234 C42.64246944 72.68459711 26.02222036 60.50574703 14.5625 45.5 C4.68495416 30.96441149 1.25206785 17.52894996 0 0 Z " fill="#FFE3D7" transform="translate(159,436)"/>
<path d="M0 0 C1.21497665 -0.00021904 1.21497665 -0.00021904 2.45449829 -0.0004425 C5.13286005 0.00025439 7.81115234 0.00803636 10.48950195 0.01586914 C12.34609438 0.01773411 14.2026873 0.01915764 16.0592804 0.02015686 C20.94684202 0.02397579 25.83437394 0.03380078 30.72192383 0.04486084 C35.70889891 0.05508835 40.69587878 0.05965736 45.68286133 0.06469727 C55.46868167 0.07542358 65.25447997 0.09249255 75.0402832 0.11352539 C74.56896924 1.55374162 74.09538633 2.99321546 73.62084961 4.43237305 C73.22562607 5.63490219 73.22562607 5.63490219 72.82241821 6.86172485 C66.3326256 25.54611862 51.05439693 38.37392939 34.0402832 47.11352539 C28.10137524 49.89547968 23.7787023 51.35260481 17.2824707 49.19946289 C5.86821592 44.67463043 -3.19976909 38.6976882 -11.9597168 30.11352539 C-13.02319336 29.10418945 -13.02319336 29.10418945 -14.1081543 28.07446289 C-17.99600179 24.09140281 -19.97422388 20.92978255 -20.15893555 15.28149414 C-19.68815115 10.15825219 -17.77503204 6.56860104 -13.9597168 3.23852539 C-9.29693722 -0.06427681 -5.50692696 -0.02586994 0 0 Z " fill="#FFF7F4" transform="translate(233.959716796875,458.886474609375)"/>
<path d="M0 0 C2.64764845 1.67684402 2.95477045 2.85138861 3.875 5.875 C4.02971898 9.7429744 3.25762248 10.88991426 1 14 C-0.97465104 15.6436726 -2.91479115 17.14134636 -5 18.625 C-16.45572709 27.15630382 -25.20684076 37.12355723 -33 49 C-33.62648437 49.94230469 -34.25296875 50.88460937 -34.8984375 51.85546875 C-48.30477071 73.36019781 -54.38001194 99.36080446 -55.16015625 124.5 C-55.18754883 125.22533936 -55.21494141 125.95067871 -55.24316406 126.69799805 C-55.30813934 128.67951512 -55.33701081 130.66212323 -55.36328125 132.64453125 C-56.16857021 136.88835469 -57.62954921 138.37635463 -61 141 C-64.5625 141.5625 -64.5625 141.5625 -68 141 C-70.36497439 139.13291495 -71.66030715 137.67938569 -73 135 C-74.70691161 93.94608572 -61.20414975 50.69724169 -33.32177734 20.16210938 C-12.01871779 -2.57543953 -12.01871779 -2.57543953 0 0 Z " fill="#FCAA9F" transform="translate(111,27)"/>
<path d="M0 0 C7.47332287 4.2650782 13.76909407 10.12938455 20 16 C20.59296875 16.52851562 21.1859375 17.05703125 21.796875 17.6015625 C48.60625121 42.49598326 61.85541965 83.82008756 63.3203125 119.45703125 C63.36990128 121.63780689 63.40912645 123.81884517 63.4375 126 C63.45981689 127.03342529 63.48213379 128.06685059 63.50512695 129.1315918 C63.48310136 136.27800236 63.48310136 136.27800236 61.22265625 139.65625 C58.90408332 141.05798829 57.68539863 141.54195935 55 141.5 C54.01 141.51546875 54.01 141.51546875 53 141.53125 C50.0910207 140.75855237 48.91212775 139.29134046 47 137 C46.42578125 134.50830078 46.42578125 134.50830078 46.3125 131.6953125 C46.25618408 130.64819092 46.19986816 129.60106934 46.1418457 128.5222168 C46.09503662 127.40113525 46.04822754 126.28005371 46 125.125 C43.61101924 85.84710537 31.24183573 49.74260595 1.4375 22.75 C-2.0286197 19.73994868 -5.61978142 16.9690834 -9.37109375 14.32421875 C-11 13 -11 13 -13 10 C-12.92433357 5.83834648 -12.59563245 3.70074406 -9.875 0.5 C-5.87824981 -1.58526097 -4.31958514 -1.34544455 0 0 Z " fill="#FCAA9F" transform="translate(370,27)"/>
<path d="M0 0 C2.375 1.625 2.375 1.625 4 4 C4.5625 7.4375 4.5625 7.4375 4 11 C1.796875 13.41015625 1.796875 13.41015625 -1 16 C-18.99544654 32.7849905 -28.44106314 53.83500414 -29.5 78.5 C-29.54640625 80.43359375 -29.54640625 80.43359375 -29.59375 82.40625 C-30.02901203 86.2566449 -30.98040404 88.71320657 -33 92 C-36.13400885 93.56700442 -39.63155095 93.85164561 -43 93 C-45.92015406 90.28441015 -46.90989884 88.60942441 -47.49609375 84.64453125 C-47.01870956 53.42360537 -36.8830572 26.6820177 -14.67578125 4.27734375 C-9.93048445 0.23864589 -6.14879027 -2.00504031 0 0 Z " fill="#FCAA9F" transform="translate(51,30)"/>
<path d="M0 0 C20.73850706 14.67398281 32.29903027 38.69904201 36.80859375 63.109375 C37.35549444 66.74532168 37.73750207 70.33310578 38 74 C38.09410156 75.27359375 38.18820312 76.5471875 38.28515625 77.859375 C38.65223112 86.93271272 38.65223112 86.93271272 35.9375 91.375 C32.26691544 93.40553614 30.13807018 93.60190112 26 93 C22.8149643 91.23984869 22.16703028 90.50109084 21 87 C20.84384319 85.51248381 20.72878464 84.02043358 20.640625 82.52734375 C18.93669974 57.51607437 12.73466796 35.61332287 -6 18 C-7.0844386 17.09246024 -8.17429056 16.19134877 -9.26953125 15.296875 C-12.61621352 12.48164013 -12.91200979 11.95029432 -13.3125 7.625 C-13 4 -13 4 -11.125 1.625 C-7.1039735 -1.44990262 -4.94755196 -1.14650995 0 0 Z " fill="#FCA99E" transform="translate(430,30)"/>
</svg>
