<?xml version="1.0" encoding="UTF-8"?>
<svg version="1.1" xmlns="http://www.w3.org/2000/svg" width="342" height="728">
<path d="M0 0 C1.26171524 -0.01472855 2.52343048 -0.02945709 3.82337952 -0.04463196 C6.49236199 -0.06854682 9.16036837 -0.08514567 11.8293457 -0.09155273 C14.5347861 -0.10020743 17.23782967 -0.13473141 19.94262695 -0.1940918 C40.1266832 -0.60505424 53.795292 0.85325508 69.37109375 14.32421875 C70.89682392 15.77930904 70.89682392 15.77930904 72.97265625 15.57421875 C73.46636719 14.57519531 73.96007812 13.57617188 74.46875 12.546875 C75.1157802 11.24343735 75.76292136 9.94005477 76.41015625 8.63671875 C76.89838867 7.64768555 76.89838867 7.64768555 77.39648438 6.63867188 C79.859375 1.6875 79.859375 1.6875 80.97265625 0.57421875 C83.95618442 0.4762237 86.91658824 0.4443023 89.90052795 0.45396423 C91.31943832 0.45268021 91.31943832 0.45268021 92.76701355 0.45137024 C95.97237992 0.44970443 99.17769498 0.45525582 102.38305664 0.46069336 C104.70603401 0.46099944 107.02901147 0.46086664 109.35198879 0.4603281 C115.5965521 0.4601015 121.84109641 0.46591499 128.08565521 0.47293854 C133.93629519 0.47861577 139.78693046 0.47890069 145.63757324 0.47961426 C162.77010345 0.48487038 179.90263009 0.49883141 197.03515625 0.51171875 C254.42421875 0.54265625 254.42421875 0.54265625 312.97265625 0.57421875 C312.97265625 78.78421875 312.97265625 156.99421875 312.97265625 237.57421875 C294.07133576 235.6840867 279.48917279 229.04627307 265.97265625 215.57421875 C265.18890625 214.81367188 264.40515625 214.053125 263.59765625 213.26953125 C257.66523755 207.15673496 249.97265625 197.4932569 249.97265625 188.57421875 C249.34101563 189.14269531 248.709375 189.71117187 248.05859375 190.296875 C233.73857466 202.65666093 219.27793691 207.61758839 200.39453125 206.76953125 C187.59997529 205.73771222 175.72393387 198.74482842 166.97265625 189.57421875 C155.63075967 175.98757181 152.21059769 161.03441023 153.5859375 143.7265625 C153.97265625 140.57421875 153.97265625 140.57421875 154.97265625 137.57421875 C154.25722656 137.85136719 153.54179687 138.12851563 152.8046875 138.4140625 C139.99927175 143.06907133 128.08306544 144.01835321 115.34765625 138.82421875 C106.31545383 134.49066645 97.42550675 127.39973869 93.47265625 118.01171875 C93.30765625 117.20734375 93.14265625 116.40296875 92.97265625 115.57421875 C92.31265625 115.57421875 91.65265625 115.57421875 90.97265625 115.57421875 C90.60140625 116.88132813 90.60140625 116.88132813 90.22265625 118.21484375 C84.21162286 134.36949599 67.55890889 146.64690753 52.97265625 154.57421875 C53.46765625 157.04921875 53.46765625 157.04921875 53.97265625 159.57421875 C54.77703125 159.14109375 54.77703125 159.14109375 55.59765625 158.69921875 C64.71329461 154.38128479 75.7330961 153.72093081 85.34765625 157.01171875 C94.85087303 161.57903204 101.19719109 168.84581084 104.97265625 178.57421875 C107.64050783 186.5777735 107.06628404 197.66415262 103.42578125 205.265625 C97.6038642 214.51496095 90.19713808 221.04473441 79.59765625 223.94921875 C69.15375371 225.83820286 59.12108591 223.09783405 50.34765625 217.32421875 C49.56390625 216.74671875 48.78015625 216.16921875 47.97265625 215.57421875 C47.72773437 216.07050781 47.4828125 216.56679687 47.23046875 217.078125 C41.2274658 227.98703035 29.84671826 232.93952678 18.328125 236.359375 C3.68310801 239.67481363 -10.93446722 236.61665819 -23.8828125 229.4296875 C-24.8524292 228.8936792 -25.8220459 228.3576709 -26.82104492 227.80541992 C-27.54912354 227.39912354 -28.27720215 226.99282715 -29.02734375 226.57421875 C-29.23749631 198.38472581 -29.39624979 170.19535009 -29.4936533 142.00523186 C-29.54007974 128.91630763 -29.60338543 115.82786984 -29.70629883 102.73925781 C-29.79594567 91.33246895 -29.85405396 79.92603233 -29.8741402 68.51890099 C-29.88588363 62.47752862 -29.91351979 56.437164 -29.97891426 50.39611435 C-30.03995744 44.71102656 -30.05885754 39.02736246 -30.04531288 33.34197807 C-30.04779101 31.25454536 -30.06572334 29.16706557 -30.10019302 27.079916 C-30.348317 11.28239718 -30.348317 11.28239718 -27.06922817 7.0421381 C-24.74020425 5.4519175 -22.68563544 4.48137978 -20.02734375 3.57421875 C-18.95540771 2.96731201 -17.88347168 2.36040527 -16.77905273 1.73510742 C-11.2052026 0.01039489 -5.80532636 0.04634008 0 0 Z M179.97265625 58.57421875 C178.027865 60.53653065 176.17879274 62.51070453 174.34765625 64.57421875 C173.83203125 65.1465625 173.31640625 65.71890625 172.78515625 66.30859375 C171.50942352 67.72607457 170.24040428 69.1495922 168.97265625 70.57421875 C170.10811931 74.12254082 171.33813092 77.47854972 172.97265625 80.82421875 C176.74527512 89.24222652 177.28518363 97.44147426 176.97265625 106.57421875 C177.66617188 106.29578125 178.3596875 106.01734375 179.07421875 105.73046875 C180.03070313 105.34890625 180.9871875 104.96734375 181.97265625 104.57421875 C182.97039062 104.17203125 183.968125 103.76984375 184.99609375 103.35546875 C193.71339006 100.02298251 201.69966096 98.44437377 210.97265625 97.57421875 C208.55598576 95.13612388 206.13296159 92.72258081 203.61328125 90.390625 C193.99858929 81.32579287 187.46358081 70.54940096 181.97265625 58.57421875 C181.31265625 58.57421875 180.65265625 58.57421875 179.97265625 58.57421875 Z M244.97265625 111.57421875 C245.88015625 112.77046875 246.78765625 113.96671875 247.72265625 115.19921875 C250.26576939 118.58601871 252.66489471 122.02381637 254.97265625 125.57421875 C258.56900369 122.0806241 261.80717592 118.46323744 264.97265625 114.57421875 C264.64265625 113.91421875 264.31265625 113.25421875 263.97265625 112.57421875 C257.70265625 112.24421875 251.43265625 111.91421875 244.97265625 111.57421875 Z " fill="#FAEEE9" transform="translate(29.02734375,-0.57421875)"/>
<path d="M0 0 C1.26171524 -0.01472855 2.52343048 -0.02945709 3.82337952 -0.04463196 C6.49236199 -0.06854682 9.16036837 -0.08514567 11.8293457 -0.09155273 C14.5347861 -0.10020743 17.23782967 -0.13473141 19.94262695 -0.1940918 C35.70161825 -0.51495662 48.76377593 -0.71804922 61.97265625 8.57421875 C62.85703369 9.17113525 63.74141113 9.76805176 64.65258789 10.38305664 C66.91962338 11.98153078 68.92737862 13.70031229 70.97265625 15.57421875 C71.87628906 16.39792969 72.77992187 17.22164062 73.7109375 18.0703125 C79.90476757 23.9791761 84.80318653 30.06288761 88.97265625 37.57421875 C89.50632812 38.50878906 90.04 39.44335938 90.58984375 40.40625 C95.64237377 49.79490652 99.78010532 60.7697812 98.97265625 71.57421875 C97.984375 73.69140625 97.984375 73.69140625 96.66015625 75.44921875 C89.59248836 86.05072059 89.67017288 98.50950573 91.609375 110.828125 C92.33358533 118.29605731 87.63351771 123.93530464 83.22265625 129.63671875 C74.47211507 140.09148518 64.95085117 148.0643302 52.97265625 154.57421875 C53.46765625 157.04921875 53.46765625 157.04921875 53.97265625 159.57421875 C54.77703125 159.14109375 54.77703125 159.14109375 55.59765625 158.69921875 C64.71329461 154.38128479 75.7330961 153.72093081 85.34765625 157.01171875 C94.85087303 161.57903204 101.19719109 168.84581084 104.97265625 178.57421875 C107.64050783 186.5777735 107.06628404 197.66415262 103.42578125 205.265625 C97.6038642 214.51496095 90.19713808 221.04473441 79.59765625 223.94921875 C69.15375371 225.83820286 59.12108591 223.09783405 50.34765625 217.32421875 C49.56390625 216.74671875 48.78015625 216.16921875 47.97265625 215.57421875 C47.72773437 216.07050781 47.4828125 216.56679687 47.23046875 217.078125 C41.2274658 227.98703035 29.84671826 232.93952678 18.328125 236.359375 C3.68310801 239.67481363 -10.93446722 236.61665819 -23.8828125 229.4296875 C-24.8524292 228.8936792 -25.8220459 228.3576709 -26.82104492 227.80541992 C-27.54912354 227.39912354 -28.27720215 226.99282715 -29.02734375 226.57421875 C-29.23749631 198.38472581 -29.39624979 170.19535009 -29.4936533 142.00523186 C-29.54007974 128.91630763 -29.60338543 115.82786984 -29.70629883 102.73925781 C-29.79594567 91.33246895 -29.85405396 79.92603233 -29.8741402 68.51890099 C-29.88588363 62.47752862 -29.91351979 56.437164 -29.97891426 50.39611435 C-30.03995744 44.71102656 -30.05885754 39.02736246 -30.04531288 33.34197807 C-30.04779101 31.25454536 -30.06572334 29.16706557 -30.10019302 27.079916 C-30.348317 11.28239718 -30.348317 11.28239718 -27.06922817 7.0421381 C-24.74020425 5.4519175 -22.68563544 4.48137978 -20.02734375 3.57421875 C-18.95540771 2.96731201 -17.88347168 2.36040527 -16.77905273 1.73510742 C-11.2052026 0.01039489 -5.80532636 0.04634008 0 0 Z " fill="#F49B90" transform="translate(29.02734375,-0.57421875)"/>
<path d="M0 0 C5.28794571 4.22736903 9.82606737 8.67402652 14 14 C14.99 14.99 14.99 14.99 16 16 C16.625 18.625 16.625 18.625 17 21 C17.53625 20.71125 18.0725 20.4225 18.625 20.125 C27.74063836 15.80706604 38.76043985 15.14671206 48.375 18.4375 C57.87821678 23.00481329 64.22453484 30.27159209 68 40 C70.66785158 48.00355475 70.09362779 59.08993387 66.453125 66.69140625 C60.63120795 75.9407422 53.22448183 82.47051566 42.625 85.375 C32.18109746 87.26398411 22.14842966 84.5236153 13.375 78.75 C12.199375 77.88375 12.199375 77.88375 11 77 C10.63261719 77.74443359 10.63261719 77.74443359 10.2578125 78.50390625 C4.25480955 89.4128116 -7.12593799 94.36530803 -18.64453125 97.78515625 C-33.28954824 101.10059488 -47.90712347 98.04243944 -60.85546875 90.85546875 C-61.82508545 90.31946045 -62.79470215 89.78345215 -63.79370117 89.23120117 C-64.88581909 88.62175659 -64.88581909 88.62175659 -66 88 C-66.20864697 76.8909815 -66.36850247 65.78242988 -66.46630955 54.6718502 C-66.51325639 49.5124625 -66.57691451 44.35441631 -66.67895508 39.19580078 C-66.7768399 34.21603884 -66.83057649 29.23756583 -66.85389519 24.25691605 C-66.870509 22.35814746 -66.90295487 20.45944852 -66.95157051 18.56122971 C-67.31764566 3.67380436 -67.31764566 3.67380436 -64.05349731 -0.47264099 C-61.72621634 -2.05974087 -59.65044321 -3.07337521 -57 -4 C-55.90171875 -4.54269531 -54.8034375 -5.08539063 -53.671875 -5.64453125 C-52.22554687 -6.22267578 -52.22554687 -6.22267578 -50.75 -6.8125 C-49.77546875 -7.21082031 -48.8009375 -7.60914063 -47.796875 -8.01953125 C-31.6190376 -13.69081224 -13.86484895 -9.31159974 0 0 Z " fill="#FEF7F4" transform="translate(66,138)"/>
<path d="M0 0 C0.77988281 0.36222656 1.55976563 0.72445312 2.36328125 1.09765625 C11.14145909 5.57013028 21.36951935 12.43918671 25 22 C24.6948763 26.36561602 23.33683508 29.9051227 21.5625 33.875 C17.45973308 43.06029907 16.68142784 50.85239436 16.75 60.8125 C16.74226563 61.92431641 16.73453125 63.03613281 16.7265625 64.18164062 C16.74155832 70.58860369 17.26776114 76.4149724 18.83984375 82.63623047 C19.04907372 85.72428625 18.13667383 86.91962365 16.25 89.3125 C4.02853902 101.0077924 -10.55825832 104.51500919 -26.86328125 104.27734375 C-40.81428892 103.76385674 -53.43996907 97.01811575 -63 87 C-74.25775016 73.51415346 -77.65861348 58.63413382 -76.58203125 41.4453125 C-75.51406917 35.12355038 -73.02183656 31.62879646 -68.125 27.625 C-62.20126412 22.47617143 -59.00174772 17.51187195 -56.0625 10.3125 C-53.0501861 3.47911867 -48.67207961 1.04582527 -42 -1.8125 C-28.83054084 -6.23028036 -12.57638442 -6.09824682 0 0 Z " fill="#44494F" transform="translate(259,102)"/>
<path d="M0 0 C0 48.18 0 96.36 0 146 C-18.90132049 144.10986795 -33.48348346 137.47205432 -47 124 C-48.175625 122.85917969 -48.175625 122.85917969 -49.375 121.6953125 C-55.3074187 115.58251621 -63 105.91903815 -63 97 C-63.66 96.67 -64.32 96.34 -65 96 C-69.99854828 79.3401489 -68.85505152 58.86142241 -62 43 C-61.5771875 41.94039062 -61.154375 40.88078125 -60.71875 39.7890625 C-53.21465049 22.81758163 -36.77053269 9.85449242 -19.75 3.25 C-18.5125 2.8375 -17.275 2.425 -16 2 C-14.865625 1.608125 -13.73125 1.21625 -12.5625 0.8125 C-9 0 -9 0 0 0 Z " fill="#F49B90" transform="translate(342,91)"/>
<path d="M0 0 C9.41256045 5.90873084 14.82324377 12.99316881 18.30859375 23.44921875 C19.16485198 35.81583346 18.37031587 44.94052948 10.12109375 54.76171875 C3.75278437 61.40102002 -3.43070595 65.5976601 -12.69140625 66.44921875 C-22.58691784 66.56546558 -31.92313185 63.70173229 -39.69140625 57.44921875 C-41.37890625 54.94921875 -41.37890625 54.94921875 -42.69140625 52.44921875 C-43.18640625 51.85109375 -43.68140625 51.25296875 -44.19140625 50.63671875 C-48.94370826 43.70627832 -50.55008363 34.71963773 -49.69140625 26.44921875 C-47.50836613 17.58155924 -43.66856106 8.50141679 -35.69140625 3.44921875 C-35.03140625 3.44921875 -34.37140625 3.44921875 -33.69140625 3.44921875 C-33.69140625 2.78921875 -33.69140625 2.12921875 -33.69140625 1.44921875 C-23.66049261 -3.95204244 -10.45696015 -5.02568911 0 0 Z " fill="#F49B90" transform="translate(116.69140625,157.55078125)"/>
<path d="M0 0 C0.66 0 1.32 0 2 0 C1.80664062 0.6290625 1.61328125 1.258125 1.4140625 1.90625 C1.15367187 2.7621875 0.89328125 3.618125 0.625 4.5 C0.36976563 5.3353125 0.11453125 6.170625 -0.1484375 7.03125 C-0.42945313 8.0109375 -0.71046875 8.990625 -1 10 C-1.35835938 11.16917969 -1.71671875 12.33835938 -2.0859375 13.54296875 C-3.48375095 19.23492958 -3.29011706 24.98549725 -3.25 30.8125 C-3.25773437 31.92431641 -3.26546875 33.03613281 -3.2734375 34.18164062 C-3.2605585 39.68419246 -2.94515984 44.69801262 -1.734375 50.07421875 C-1.17089844 52.7487793 -1.17089844 52.7487793 -1 55 C-2.875 57.6875 -2.875 57.6875 -5 59 C-4.98839844 58.23816406 -4.97679687 57.47632813 -4.96484375 56.69140625 C-4.88591193 49.76386218 -4.88591193 49.76386218 -5.5 42.875 C-7.09009162 29.96719743 -6.11789108 17.58291757 -3 5 C-2.01 4.67 -1.02 4.34 0 4 C0 2.68 0 1.36 0 0 Z " fill="#544447" transform="translate(279,132)"/>
<path d="M0 0 C0.66 0.33 1.32 0.66 2 1 C1.25 2.9375 1.25 2.9375 0 5 C-2.125 5.75 -2.125 5.75 -4 6 C-4 6.66 -4 7.32 -4 8 C-4.99 8.495 -4.99 8.495 -6 9 C-6.33 9.99 -6.66 10.98 -7 12 C-7.99 12.495 -7.99 12.495 -9 13 C-13.48532855 19.27945996 -13.13924554 25.97200737 -13.0625 33.375 C-13.05798828 34.20644531 -13.05347656 35.03789062 -13.04882812 35.89453125 C-13.03713164 37.92971897 -13.01919935 39.96486923 -13 42 C-16.36401119 36.95398322 -16.61948357 30.96660495 -16 25 C-13.81695988 16.13234049 -9.97715481 7.05219804 -2 2 C-1.34 2 -0.68 2 0 2 C0 1.34 0 0.68 0 0 Z " fill="#EBA8A0" transform="translate(83,159)"/>
<path d="M0 0 C1.485 0.2475 1.485 0.2475 3 0.5 C12.47292303 1.68411538 22.58930543 1.56844909 32 0 C27.65640332 4.15474466 22.0733169 4.99563449 16.25 5.00390625 C10.32978463 4.6010027 5.43437079 3.35831185 0 1 C0 0.67 0 0.34 0 0 Z " fill="#ECB1AC" transform="translate(85,219)"/>
<path d="M0 0 C5.54101978 0.24950183 8.12403813 3.69843592 11.6875 7.5 C12.83517243 8.69989726 13.98482171 9.89790776 15.13671875 11.09375 C15.63905029 11.62677734 16.14138184 12.15980469 16.65893555 12.70898438 C17.99098973 14.11971766 17.99098973 14.11971766 20 15 C20 14.34 20 13.68 20 13 C21.98 13 23.96 13 26 13 C21.74199236 17.01469292 21.74199236 17.01469292 18.6328125 16.953125 C15.03587899 15.65097103 13.50730358 13.60349795 11.0625 10.6875 C7.60988821 6.58923339 4.46426912 3.83971704 0 1 C0 0.67 0 0.34 0 0 Z " fill="#ECA9A4" transform="translate(63,136)"/>
<path d="M0 0 C0.33 0 0.66 0 1 0 C1.06058594 0.9178125 1.12117188 1.835625 1.18359375 2.78125 C1.26738281 4.0084375 1.35117188 5.235625 1.4375 6.5 C1.52128906 7.78390625 1.60507813 9.0678125 1.69140625 10.390625 C1.92490816 13.12171065 2.29766093 15.5887418 2.875 18.25 C3.05372748 23.61182441 0.9257307 27.57256681 -2 32 C-2.99 32.495 -2.99 32.495 -4 33 C-4 31.35 -4 29.7 -4 28 C-3.0409375 27.7525 -3.0409375 27.7525 -2.0625 27.5 C0.16119241 26.218214 0.16119241 26.218214 0.48828125 24.0859375 C0.7275978 22.06424845 0.86893028 20.03158061 1 18 C0.34 18 -0.32 18 -1 18 C-0.505 9.09 -0.505 9.09 0 0 Z " fill="#EDB0A9" transform="translate(118,92)"/>
<path d="M0 0 C1.02867188 -0.01160156 1.02867188 -0.01160156 2.078125 -0.0234375 C6.42530835 -0.0068452 9.96113993 0.65969885 14 2.25 C12.02 3.24 12.02 3.24 10 4.25 C10 3.59 10 2.93 10 2.25 C1.31482976 2.75645534 -7.35209459 3.27295299 -16 4.25 C-11.62146126 -0.12853874 -5.87731228 -0.06628548 0 0 Z " fill="#EDB2AA" transform="translate(101,154.75)"/>
<path d="M0 0 C0.33 0 0.66 0 1 0 C1.04898437 1.31613281 1.09796875 2.63226563 1.1484375 3.98828125 C1.22221919 5.76309399 1.29786093 7.53783002 1.375 9.3125 C1.41391357 10.22644531 1.45282715 11.14039063 1.49291992 12.08203125 C1.77917201 17.87079874 2.41508213 23.30456991 3.98828125 28.90625 C3.99214844 29.5971875 3.99601562 30.288125 4 31 C2.68 32.32 1.36 33.64 0 35 C0 23.45 0 11.9 0 0 Z " fill="#6A5353" transform="translate(274,156)"/>
<path d="M0 0 C-3.51187196 2.40814077 -5.72656908 3.36629408 -10 3 C-10.433125 3.928125 -10.433125 3.928125 -10.875 4.875 C-12 7 -12 7 -14 9 C-17.125 9.125 -17.125 9.125 -20 9 C-16.9885992 5.67732459 -13.99698275 3.70098006 -10 1.6875 C-8.96875 1.15511719 -7.9375 0.62273437 -6.875 0.07421875 C-3.92930523 -1.02641449 -2.85131463 -1.17205481 0 0 Z " fill="#F1BAB1" transform="translate(20,1)"/>
<path d="M0 0 C2.46430239 3.69645358 2.29648824 6.53945599 2.25 10.8125 C2.25773438 11.51181641 2.26546875 12.21113281 2.2734375 12.93164062 C2.25697293 17.33179782 1.61668867 20.91337032 0 25 C-0.33 25 -0.66 25 -1 25 C-0.67 16.75 -0.34 8.5 0 0 Z " fill="#ECAEA9" transform="translate(133,178)"/>
<path d="M0 0 C-6.93 3.465 -6.93 3.465 -14 7 C-14 7.66 -14 8.32 -14 9 C-16.64738916 10.4606285 -17.89448334 11 -21 11 C-19.65531683 7.76844319 -18.53571115 6.38797871 -15.41015625 4.82421875 C-14.70826172 4.47166016 -14.00636719 4.11910156 -13.28320312 3.75585938 C-12.55037109 3.40330078 -11.81753906 3.05074219 -11.0625 2.6875 C-10.33353516 2.31560547 -9.60457031 1.94371094 -8.85351562 1.56054688 C-3.38835816 -1.12945272 -3.38835816 -1.12945272 0 0 Z " fill="#FEEEE4" transform="translate(21,131)"/>
<path d="M0 0 C0 0.99 0 1.98 0 3 C-2.08203125 4.5 -2.08203125 4.5 -4.8125 6 C-7.96672242 7.74779424 -10.58397268 9.30303927 -13 12 C-13.99 11.67 -14.98 11.34 -16 11 C-10.86601899 6.85556181 -5.83096952 3.10157953 0 0 Z " fill="#ECA49E" transform="translate(314,98)"/>
<path d="M0 0 C0.66 0 1.32 0 2 0 C1.71848913 1.31471568 1.42446661 2.62675767 1.125 3.9375 C0.96257812 4.66839844 0.80015625 5.39929688 0.6328125 6.15234375 C0 8 0 8 -2 9 C-2.72693904 10.97888961 -3.39816251 12.97954558 -4 15 C-4.66 15 -5.32 15 -6 15 C-4.36041242 9.76727367 -2.61047965 4.84803364 0 0 Z " fill="#D89991" transform="translate(284,126)"/>
<path d="M0 0 C5.40489519 1.52012677 8.98492628 5.27385218 13 9 C12.01 9.33 11.02 9.66 10 10 C8.5 8.625 8.5 8.625 7 7 C7 6.34 7 5.68 7 5 C5.5459375 4.5978125 5.5459375 4.5978125 4.0625 4.1875 C3.051875 3.795625 2.04125 3.40375 1 3 C0.67 2.01 0.34 1.02 0 0 Z " fill="#EDB3AB" transform="translate(115,158)"/>
<path d="M0 0 C1.65 0.33 3.3 0.66 5 1 C0.56923077 6.78461538 0.56923077 6.78461538 -2.3125 7.875 C-2.869375 7.91625 -3.42625 7.9575 -4 8 C-4 7.01 -4 6.02 -4 5 C-2.68 5 -1.36 5 0 5 C0 3.35 0 1.7 0 0 Z " fill="#F1A9A5" transform="translate(121,211)"/>
<path d="M0 0 C0.7425 0.0825 1.485 0.165 2.25 0.25 C1.125 2.25 1.125 2.25 -0.75 4.25 C-3.9375 4.5 -3.9375 4.5 -6.75 4.25 C-3.42692308 0.31153846 -3.42692308 0.31153846 0 0 Z " fill="#F0A9A2" transform="translate(6.75,5.75)"/>
<path d="M0 0 C0.66 0 1.32 0 2 0 C0.515 5.445 0.515 5.445 -1 11 C-1.66 10.34 -2.32 9.68 -3 9 C-2.67582137 5.19090105 -2.14418558 3.21627837 0 0 Z " fill="#FEEDE4" transform="translate(69,173)"/>
<path d="M0 0 C2.91227269 3.28804981 4.49701212 5.59885603 5 10 C4.34 10 3.68 10 3 10 C0.4606772 6.58168085 -0.3636198 4.24223102 0 0 Z " fill="#EDB4AD" transform="translate(128,168)"/>
<path d="M0 0 C0.33 0.66 0.66 1.32 1 2 C0.22265625 4.1640625 0.22265625 4.1640625 -0.9375 6.625 C-1.31777344 7.44226563 -1.69804687 8.25953125 -2.08984375 9.1015625 C-2.39019531 9.72804688 -2.69054687 10.35453125 -3 11 C-3.33 10.34 -3.66 9.68 -4 9 C-4.66 8.67 -5.32 8.34 -6 8 C-4.02 5.36 -2.04 2.72 0 0 Z " fill="#EFB9B1" transform="translate(290,117)"/>
<path d="M0 0 C0.99 0 1.98 0 3 0 C3.33 0.66 3.66 1.32 4 2 C7.02934491 2.65772428 7.02934491 2.65772428 10 3 C10 3.33 10 3.66 10 4 C1.42857143 4.28571429 1.42857143 4.28571429 -2 2 C-1.34 2 -0.68 2 0 2 C0 1.34 0 0.68 0 0 Z " fill="#666A6E" transform="translate(225,202)"/>
<path d="M0 0 C0.99 0.33 1.98 0.66 3 1 C4.1875 4.0625 4.1875 4.0625 5 7 C4.01 7.495 4.01 7.495 3 8 C0 2.25 0 2.25 0 0 Z " fill="#F1B8AF" transform="translate(280,192)"/>
<path d="M0 0 C1.48206495 0.254496 2.96068615 0.52911762 4.4375 0.8125 C5.67306641 1.03873047 5.67306641 1.03873047 6.93359375 1.26953125 C7.95646484 1.63111328 7.95646484 1.63111328 9 2 C9.33 2.99 9.66 3.98 10 5 C6.08788267 3.84414715 3.1254959 2.64465038 0 0 Z " fill="#F0ADA5" transform="translate(53,131)"/>
<path d="M0 0 C4.455 0.99 4.455 0.99 9 2 C5 4 5 4 2.25 3.125 C1.5075 2.75375 0.765 2.3825 0 2 C0 1.34 0 0.68 0 0 Z " fill="#EEB5AC" transform="translate(317,229)"/>
<path d="M0 0 C2.475 0.495 2.475 0.495 5 1 C5 2.32 5 3.64 5 5 C3.0625 4.1875 3.0625 4.1875 1 3 C0.67 2.01 0.34 1.02 0 0 Z " fill="#F7E4E1" transform="translate(112,28)"/>
</svg>
