<?xml version="1.0" encoding="UTF-8"?>
<svg version="1.1" xmlns="http://www.w3.org/2000/svg" width="1440" height="3200">
<path d="M0 0 C475.2 0 950.4 0 1440 0 C1440 1056 1440 2112 1440 3200 C964.8 3200 489.6 3200 0 3200 C0 2144 0 1088 0 0 Z " fill="#FBFBFB" transform="translate(0,0)"/>
<path d="M0 0 C1.33466309 0.29874023 1.33466309 0.29874023 2.69628906 0.60351562 C18.0990631 4.06334368 33.03850569 9.00089529 48 14 C49.38517822 14.46043701 49.38517822 14.46043701 50.79833984 14.93017578 C114.23388644 36.13996041 172.64013325 69.21157632 224 112 C224.86165771 112.7130127 224.86165771 112.7130127 225.74072266 113.44042969 C233.39013355 119.77540979 241.0118612 126.22288776 248.01737094 133.2736432 C250.04168873 135.15125082 250.04168873 135.15125082 252.92178655 136.66221124 C257.82556165 139.94164053 261.24333028 142.92804519 262.69565004 148.82422493 C263.76931276 157.19783983 263.58456216 165.64840054 263.46719432 174.07342158 C263.42580819 178.0024038 263.45446572 181.93099083 263.47412419 185.86005574 C263.49896428 192.74165139 263.4793653 199.62199994 263.4304657 206.50345039 C263.35795843 216.73558911 263.35444362 226.96694373 263.36496956 237.19929252 C263.38072717 254.41240363 263.34067544 271.62496149 263.26876068 288.83791161 C263.19774404 305.87959722 263.15156697 322.92105239 263.13852692 339.9628849 C263.13770204 341.02268405 263.13687717 342.0824832 263.13602729 343.17439748 C263.13196727 348.55663309 263.12835067 353.93886889 263.12490478 359.32110492 C263.09970315 397.438592 263.01886436 435.55577813 262.90527344 473.6730957 C262.7950523 510.7023763 262.71005294 547.73157454 262.65917969 584.76098633 C262.65760137 585.90249231 262.65602306 587.0439983 262.65439692 588.22009537 C262.63857461 599.68361989 262.62326485 611.14714504 262.60833061 622.61067075 C262.57789645 645.96297048 262.54404143 669.31526485 262.50811768 692.66755676 C262.50564646 694.27809002 262.50564646 694.27809002 262.50312531 695.9211593 C262.39272659 767.61423134 262.20258523 839.3071365 262 911 C187.00158607 911.15422297 112.00315304 911.29732276 37.00462341 911.38108826 C35.89499274 911.38233077 34.78536207 911.38357328 33.64210623 911.38485345 C9.52805911 911.4117883 -14.5859897 911.43672013 -38.70004102 911.45958797 C-50.52520676 911.4708142 -62.35037204 911.48248316 -74.17553711 911.49438477 C-75.35229632 911.4955616 -76.52905553 911.49673843 -77.74147411 911.49795092 C-115.89805606 911.53631742 -154.05451821 911.60392985 -192.21102756 911.68667499 C-231.41494778 911.77153729 -270.61880168 911.82696176 -309.8228122 911.84523491 C-315.35743611 911.84782838 -320.8920598 911.85075912 -326.42668343 911.85389519 C-327.5159992 911.85450199 -328.60531497 911.8551088 -329.72764031 911.855734 C-347.27748917 911.86637816 -364.82713325 911.90814395 -382.37689853 911.96148831 C-400.01140229 912.01442824 -417.64570261 912.03472327 -435.28028309 912.0215124 C-445.76328637 912.0146562 -456.24554625 912.03301267 -466.72841559 912.08717789 C-473.727535 912.12087835 -480.72616656 912.12200819 -487.7253194 912.09648632 C-491.71594849 912.08287228 -495.70517007 912.08357849 -499.69564932 912.12394864 C-503.32757766 912.1604127 -506.95700285 912.1553016 -510.58889334 912.11725978 C-512.50782233 912.10781562 -514.4268143 912.14251133 -516.34541813 912.17907628 C-522.91015643 912.0635946 -526.4226705 911.30987462 -531.18016678 906.61413521 C-532.48691505 905.10442404 -533.7650904 903.56901789 -535 902 C-535.8353125 901.03191406 -536.670625 900.06382812 -537.53125 899.06640625 C-538.1809375 898.24011719 -538.830625 897.41382812 -539.5 896.5625 C-542.31165605 893.04792994 -545.18452068 889.66983087 -548.25 886.375 C-554.66566346 879.31331487 -560.31189507 871.64935036 -566 864 C-566.54205078 863.27216309 -567.08410156 862.54432617 -567.64257812 861.79443359 C-583.36235648 840.59354118 -597.18274926 818.27353585 -609.83300781 795.12988281 C-610.88812506 793.20418347 -611.95435531 791.28515286 -613.0234375 789.3671875 C-627.00258098 763.86238287 -637.82478681 736.5615203 -647 709 C-647.31678711 708.05753418 -647.63357422 707.11506836 -647.95996094 706.14404297 C-654.72589755 685.92214364 -660.9084746 665.28978224 -664.59912109 644.25683594 C-665.09557753 641.4619253 -665.62236261 638.673033 -666.14453125 635.8828125 C-668.65757955 622.171775 -670.676798 608.47215467 -672.25 594.625 C-672.33281219 593.90195679 -672.41562439 593.17891357 -672.50094604 592.43395996 C-674.56829514 574.20721732 -675.20366703 556.20759848 -675.1875 537.875 C-675.18722809 536.71970795 -675.18695618 535.56441589 -675.18667603 534.37411499 C-675.16767968 516.82650728 -674.79361489 499.46739507 -673 482 C-672.90348145 480.99855957 -672.80696289 479.99711914 -672.70751953 478.96533203 C-670.11015137 452.55235825 -665.3771395 426.48118601 -658.9375 400.75 C-658.73003143 399.91709442 -658.52256287 399.08418884 -658.30880737 398.2260437 C-655.95594915 388.844953 -653.33216907 379.63714826 -650.18603516 370.49121094 C-649.05007272 367.14739398 -648.00966757 363.78889385 -646.99609375 360.40625 C-644.94140189 353.6702287 -642.560973 347.08298086 -640.0625 340.5 C-639.71325974 339.57889938 -639.71325974 339.57889938 -639.35696411 338.63919067 C-633.84129625 324.15189539 -627.58205377 310.03207068 -621 296 C-620.56333008 295.06865234 -620.12666016 294.13730469 -619.67675781 293.17773438 C-612.94809986 278.9733827 -605.05899835 265.48264542 -597 252 C-596.05064818 250.39330779 -595.10141991 248.78654256 -594.15234375 247.1796875 C-578.44192386 220.80453003 -559.66414151 195.73637157 -538.921875 173.1015625 C-537.18256911 171.19963858 -535.49236869 169.26680268 -533.8125 167.3125 C-525.93670763 158.28815457 -517.66065337 149.58833234 -509.25 141.0625 C-508.74895752 140.54848633 -508.24791504 140.03447266 -507.73168945 139.50488281 C-506.52657503 138.29662407 -505.26780702 137.14230264 -504 136 C-503.34 136 -502.68 136 -502 136 C-502 135.34 -502 134.68 -502 134 C-501.34 134 -500.68 134 -500 134 C-500 133.34 -500 132.68 -500 132 C-498.6015625 130.58984375 -498.6015625 130.58984375 -496.625 128.9375 C-493.47821792 126.26933688 -490.40792312 123.54691752 -487.375 120.75 C-481.74274429 115.66891304 -475.79750064 111.04057957 -469.80126953 106.40283203 C-468.05287896 105.04118223 -466.31916696 103.66309942 -464.58984375 102.27734375 C-455.65520543 95.13297699 -446.41839344 88.4904771 -437 82 C-436.40171387 81.58427734 -435.80342773 81.16855469 -435.18701172 80.74023438 C-408.39960983 62.1781674 -379.6260009 46.63445057 -349.92504883 33.31396484 C-347.03541232 32.01590761 -344.15407962 30.70068821 -341.2734375 29.3828125 C-322.05819503 20.65626953 -302.12683643 14.24542389 -282 8 C-280.96101563 7.67725098 -279.92203125 7.35450195 -278.8515625 7.02197266 C-254.72227441 -0.38172002 -229.91016337 -5.10947557 -205 -9 C-204.01596191 -9.15597656 -203.03192383 -9.31195312 -202.01806641 -9.47265625 C-135.52992269 -19.7282532 -65.30838714 -15.12224379 0 0 Z " fill="#FAE9E6" transform="translate(1178,2289)"/>
<path d="M0 0 C1.43115234 1.45507812 1.43115234 1.45507812 2.5859375 3.53125 C3.25737793 4.69841553 3.25737793 4.69841553 3.94238281 5.88916016 C4.41514648 6.7507373 4.88791016 7.61231445 5.375 8.5 C6.43757682 10.35301405 7.50279524 12.20451522 8.5703125 14.0546875 C9.12879883 15.03147461 9.68728516 16.00826172 10.26269531 17.01464844 C13.14003438 21.95901354 16.19750832 26.78752594 19.25 31.625 C26.56175562 43.27162909 33.77485891 54.97730229 40.97070312 66.69580078 C44.37351121 72.23641732 47.78021377 77.77463654 51.1875 83.3125 C51.85297852 84.394104 52.51845703 85.47570801 53.20410156 86.59008789 C59.45044972 96.73848145 65.72194729 106.87119916 72 117 C79.70777338 129.43546449 87.39407601 141.88380588 95.05786133 154.34643555 C99.19426483 161.07112942 103.34085079 167.78935277 107.5 174.5 C113.03912863 183.43719757 118.55087207 192.3910766 124.05859375 201.34765625 C128.19477581 208.0719292 132.34110076 214.78975609 136.5 221.5 C142.03912863 230.43719757 147.55087207 239.3910766 153.05859375 248.34765625 C157.19477581 255.0719292 161.34110076 261.78975609 165.5 268.5 C171.03912863 277.43719757 176.55087207 286.3910766 182.05859375 295.34765625 C186.19477581 302.0719292 190.34110076 308.78975609 194.5 315.5 C200.03912863 324.43719757 205.55087207 333.3910766 211.05859375 342.34765625 C215.19477581 349.0719292 219.34110076 355.78975609 223.5 362.5 C229.03912863 371.43719757 234.55087207 380.3910766 240.05859375 389.34765625 C244.19477581 396.0719292 248.34110076 402.78975609 252.5 409.5 C258.03912863 418.43719757 263.55087207 427.3910766 269.05859375 436.34765625 C273.70820899 443.90662767 278.37340396 451.45575182 283.04882812 458.9987793 C288.22943916 467.3611008 293.38289316 475.74008983 298.53320312 484.12109375 C299.17193359 485.16007812 299.81066406 486.1990625 300.46875 487.26953125 C301.07243408 488.25453613 301.67611816 489.23954102 302.2980957 490.25439453 C303.37072003 491.984811 304.45843814 493.70604758 305.56713867 495.41357422 C306.25126831 496.46762451 306.25126831 496.46762451 306.94921875 497.54296875 C307.5383606 498.43085083 307.5383606 498.43085083 308.1394043 499.33666992 C309.46619926 501.90105405 309.3508476 504.19321917 309 507 C303.08534473 507.64472546 299.53347658 505.50214544 294.5625 502.6875 C292.84580886 501.75012581 291.12696751 500.81668117 289.40625 499.88671875 C288.51292969 499.40380371 287.61960937 498.92088867 286.69921875 498.42333984 C282.38346646 496.14757683 277.97750303 494.07477764 273.5625 492 C263.29614402 487.15385277 253.1437264 482.09600652 243 477 C232.2944012 471.62348736 221.57005448 466.31042205 210.73828125 461.19140625 C201.34038728 456.72909688 192.05575992 452.04402674 182.75964355 447.37469482 C174.08640306 443.02002808 165.40006419 438.70953034 156.625 434.5625 C145.8708485 429.47929693 135.24858087 424.14205388 124.6192627 418.80450439 C114.70636305 413.82863855 104.76691906 408.93086619 94.73828125 404.19140625 C85.34038728 399.72909688 76.05575992 395.04402674 66.75964355 390.37469482 C58.08640306 386.02002808 49.40006419 381.70953034 40.625 377.5625 C29.8708485 372.47929693 19.24858087 367.14205388 8.6192627 361.80450439 C-1.29363695 356.82863855 -11.23308094 351.93086619 -21.26171875 347.19140625 C-30.65961272 342.72909688 -39.94424008 338.04402674 -49.24035645 333.37469482 C-57.91359694 329.02002808 -66.59993581 324.70953034 -75.375 320.5625 C-86.1291515 315.47929693 -96.75141913 310.14205388 -107.3807373 304.80450439 C-117.29363695 299.82863855 -127.23308094 294.93086619 -137.26171875 290.19140625 C-146.65319688 285.73214325 -155.93235542 281.0517378 -165.22122192 276.38375854 C-175.19576789 271.37282893 -185.21235926 266.47386248 -195.30493164 261.70385742 C-203.67577247 257.72625677 -211.85875572 253.42577709 -220 249 C-219.6764222 239.81039059 -218.41429559 230.94952955 -216.85107422 221.90673828 C-215.23270784 212.50856437 -213.75581673 203.09280853 -212.30499268 193.66751099 C-209.29155383 174.09726817 -206.16610782 154.54604738 -203 135 C-199.28459093 112.05953912 -195.64686549 89.108447 -192.10586548 66.14041138 C-190.76025937 57.42331244 -189.38132375 48.71149929 -188 40 C-183.89101553 38.56496333 -179.82675229 37.44123041 -175.57421875 36.51953125 C-174.31915527 36.24608887 -173.0640918 35.97264648 -171.77099609 35.69091797 C-170.40985041 35.39802051 -169.04868449 35.10521706 -167.6875 34.8125 C-166.2663912 34.50428843 -164.84533086 34.19585332 -163.42431641 33.88720703 C-152.54747586 31.52952617 -141.65906274 29.22630617 -130.76889038 26.93112183 C-121.46201401 24.96897172 -112.17890528 22.92370425 -102.91308594 20.77514648 C-94.93911694 18.94481995 -86.91861772 17.37603456 -78.89038086 15.80419922 C-73.23110518 14.68441415 -67.64311237 13.4611698 -62.0625 12 C-54.02568036 9.90857159 -45.90102318 8.39744295 -37.74169922 6.86425781 C-29.62541613 5.33333148 -21.56257946 3.63863919 -13.51171875 1.796875 C-12.35285156 1.53390625 -11.19398438 1.2709375 -10 1 C-9.11957031 0.79890625 -8.23914062 0.5978125 -7.33203125 0.390625 C-4.75830813 -0.0404844 -2.60460694 -0.25376277 0 0 Z " fill="#F4F4F4" transform="translate(1131,2693)"/>
<path d="M0 0 C0 188.1 0 376.2 0 570 C-2.49471803 566.88160246 -4.62770579 564.16649443 -6.671875 560.83203125 C-7.16300781 560.03474609 -7.65414063 559.23746094 -8.16015625 558.41601562 C-8.94712891 557.12727539 -8.94712891 557.12727539 -9.75 555.8125 C-10.59111328 554.44448242 -10.59111328 554.44448242 -11.44921875 553.04882812 C-12.66350611 551.07328622 -13.87634276 549.09685205 -15.08789062 547.11962891 C-17.70888184 542.84345095 -20.33852087 538.57261531 -22.96777344 534.30151367 C-24.33084108 532.08710188 -25.69346608 529.87241757 -27.05566406 527.6574707 C-31.19254731 520.93131876 -35.34006432 514.21191618 -39.5 507.5 C-45.03912863 498.56280243 -50.55087207 489.6089234 -56.05859375 480.65234375 C-60.19477581 473.9280708 -64.34110076 467.21024391 -68.5 460.5 C-74.03912863 451.56280243 -79.55087207 442.6089234 -85.05859375 433.65234375 C-89.19477581 426.9280708 -93.34110076 420.21024391 -97.5 413.5 C-103.03912863 404.56280243 -108.55087207 395.6089234 -114.05859375 386.65234375 C-118.19477581 379.9280708 -122.34110076 373.21024391 -126.5 366.5 C-132.03912863 357.56280243 -137.55087207 348.6089234 -143.05859375 339.65234375 C-147.19477581 332.9280708 -151.34110076 326.21024391 -155.5 319.5 C-160.34901547 311.67627678 -165.17844533 303.84067503 -170 296 C-176.97817978 284.65308947 -183.98213135 273.32239521 -191 262 C-198.70777338 249.56453551 -206.39407601 237.11619412 -214.05786133 224.65356445 C-218.19426483 217.92887058 -222.34085079 211.21064723 -226.5 204.5 C-232.03912863 195.56280243 -237.55087207 186.6089234 -243.05859375 177.65234375 C-247.19477581 170.9280708 -251.34110076 164.21024391 -255.5 157.5 C-261.03912863 148.56280243 -266.55087207 139.6089234 -272.05859375 130.65234375 C-276.19477661 123.9280695 -280.34143023 117.21044892 -284.5 110.5 C-286.07935571 107.94921321 -287.65840958 105.39823989 -289.23730469 102.84716797 C-290.51342147 100.7859389 -291.79019872 98.72511869 -293.06738281 96.66455078 C-294.89641229 93.71326267 -296.72255754 90.76020446 -298.54711914 87.80615234 C-299.5993129 86.10405317 -300.65411644 84.40356816 -301.70898438 82.703125 C-302.35416016 81.65769531 -302.99933594 80.61226562 -303.6640625 79.53515625 C-304.23592285 78.610979 -304.8077832 77.68680176 -305.39697266 76.73461914 C-307.06934517 73.88170343 -308.55336177 70.97285524 -310 68 C-300.69696827 65.26853991 -291.31099969 63.18017986 -281.8125 61.25 C-270.72683884 58.99417587 -259.66747204 56.64595764 -248.625 54.1875 C-247.88214752 54.0222583 -247.13929504 53.8570166 -246.37393188 53.68676758 C-233.2165827 50.75539526 -220.08592537 47.71149753 -206.95635986 44.65853882 C-197.60608037 42.48672545 -188.26349585 40.38071858 -178.83203125 38.58789062 C-170.00402177 36.87174956 -161.25831923 34.7864449 -152.5 32.75 C-139.65606555 29.76572688 -126.80915568 26.80021881 -113.9375 23.9375 C-113.20399323 23.77430267 -112.47048645 23.61110535 -111.7147522 23.44296265 C-99.44059999 20.71759507 -87.1390922 18.13200254 -74.82952881 15.57214355 C-60.58870912 12.60547511 -46.41243352 9.38804351 -32.25268555 6.05688477 C-6.45570938 0 -6.45570938 0 0 0 Z " fill="#CACACA" transform="translate(1440,2624)"/>
<path d="M0 0 C0.33 0 0.66 0 1 0 C1.23091517 6.83303656 0.33989406 13.24794118 -0.7578125 19.984375 C-0.94139816 21.14115753 -1.12498383 22.29794006 -1.31413269 23.48977661 C-1.91169024 27.24418194 -2.51819484 30.99707924 -3.125 34.75 C-3.5397368 37.34384402 -3.95404117 39.93775721 -4.36791992 42.53173828 C-6.74159732 57.37092792 -9.17765931 72.1991578 -11.67346191 87.01824951 C-13.31870974 96.79267421 -14.90070005 106.57332818 -16.375 116.375 C-16.54298096 117.47569824 -16.71096191 118.57639648 -16.8840332 119.71044922 C-17.03316162 120.72123535 -17.18229004 121.73202148 -17.3359375 122.7734375 C-17.46532715 123.64403809 -17.5947168 124.51463867 -17.72802734 125.41162109 C-18.03047982 128.29007812 -18.04490194 131.10778666 -18 134 C5.71755205 145.97480582 5.71755205 145.97480582 29.625 157.5625 C39.911314 162.42361137 50.07437103 167.51904807 60.24035645 172.62530518 C68.91359694 176.97997192 77.59993581 181.29046966 86.375 185.4375 C97.1291515 190.52070307 107.75141913 195.85794612 118.3807373 201.19549561 C128.29363695 206.17136145 138.23308094 211.06913381 148.26171875 215.80859375 C157.65961272 220.27090312 166.94424008 224.95597326 176.24035645 229.62530518 C184.91359694 233.97997192 193.59993581 238.29046966 202.375 242.4375 C213.1291515 247.52070307 223.75141913 252.85794612 234.3807373 258.19549561 C244.29363695 263.17136145 254.23308094 268.06913381 264.26171875 272.80859375 C273.65961272 277.27090312 282.94424008 281.95597326 292.24035645 286.62530518 C300.91359694 290.97997192 309.59993581 295.29046966 318.375 299.4375 C329.1291515 304.52070307 339.75141913 309.85794612 350.3807373 315.19549561 C360.29363695 320.17136145 370.23308094 325.06913381 380.26171875 329.80859375 C389.65961272 334.27090312 398.94424008 338.95597326 408.24035645 343.62530518 C416.91359598 347.97997143 425.59991913 352.29050633 434.375 356.4375 C445.1635798 361.5364857 455.82188661 366.88756349 466.48226929 372.24777222 C476.68004223 377.37471593 486.89438328 382.43568921 497.27587891 387.18383789 C502.89529678 389.79059356 502.89529678 389.79059356 504 392 C316.89 392 129.78 392 -63 392 C-62.40723906 385.47962961 -61.81422756 379.13529204 -60.765625 372.703125 C-60.64762543 371.96049911 -60.52962585 371.21787323 -60.40805054 370.45274353 C-60.02556138 368.05124978 -59.63787396 365.65062937 -59.25 363.25 C-58.97675413 361.542121 -58.70380966 359.83419376 -58.43115234 358.1262207 C-57.74933153 353.86088528 -57.06321087 349.59625519 -56.37561035 345.33184814 C-55.8391728 342.00155946 -55.30640833 338.670689 -54.7734375 335.33984375 C-53.52567273 327.5582615 -52.26489565 319.77881226 -51 312 C-50.85413452 311.10289307 -50.70826904 310.20578613 -50.5579834 309.28149414 C-46.10671519 281.91222541 -41.61447736 254.55053982 -37.02783203 227.20361328 C-32.96151902 202.95247043 -28.91438161 178.6999482 -25.08154297 154.41067505 C-22.47314629 137.88207684 -19.77275659 121.36941582 -17.05679321 104.85818481 C-13.64243788 84.08448767 -10.33890212 63.29426376 -7.09423828 42.4934082 C-4.87468209 28.30215114 -2.51536699 14.14190397 0 0 Z " fill="#CACACA" transform="translate(930,2808)"/>
</svg>
