<?xml version="1.0" encoding="UTF-8"?>
<svg version="1.1" xmlns="http://www.w3.org/2000/svg" width="430" height="932">
<path d="M0 0 C141.9 0 283.8 0 430 0 C430 307.56 430 615.12 430 932 C288.1 932 146.2 932 0 932 C0 624.44 0 316.88 0 0 Z " fill="#FBFBFB" transform="translate(0,0)"/>
<path d="M0 0 C141.9 0 283.8 0 430 0 C430 90.09 430 180.18 430 273 C403.03179873 283.11307548 377.47906089 291.51624383 349.27929688 296.42285156 C345.91954113 297.01416057 342.57393393 297.65600131 339.23144531 298.33740234 C320.26330325 301.84464087 300.99042347 302.38126761 281.75 302.3125 C280.68149811 302.31067719 279.61299622 302.30885437 278.51211548 302.30697632 C262.14804836 302.26012897 246.17686884 301.65463932 230 299 C228.87513184 298.82307617 227.75026367 298.64615234 226.59130859 298.46386719 C164.66991569 288.59666298 104.19231454 266.00664338 54.87890625 226.49365234 C53.06240863 225.04961226 51.22483456 223.63925889 49.375 222.23828125 C36.58790975 212.50754831 25.25059216 201.3200377 13.875 190 C13.06909424 189.19884766 12.26318848 188.39769531 11.43286133 187.57226562 C10.66868896 186.80591797 9.9045166 186.03957031 9.1171875 185.25 C8.10567627 184.23679688 8.10567627 184.23679688 7.07373047 183.203125 C-34.81326148 138.702511 0 61.11321249 0 0 Z " fill="#F59B90" transform="translate(0,0)"/>
</svg>
