<svg version="1.1" id="Layer_1" xmlns="http://www.w3.org/2000/svg" xmlns:xlink="http://www.w3.org/1999/xlink" x="0px" y="0px"
	 width="100%" viewBox="0 0 225 225" enable-background="new 0 0 225 225" xml:space="preserve">
<path fill="#000000" opacity="1.000000" stroke="none" 
	d="
M110.000000,226.000000 
	C73.333336,226.000000 37.166672,226.000000 1.000005,226.000000 
	C1.000003,151.000000 1.000003,76.000015 1.000002,1.000015 
	C75.999992,1.000010 150.999985,1.000010 225.999969,1.000005 
	C225.999985,75.999985 225.999985,150.999969 226.000000,225.999969 
	C187.500000,226.000000 149.000000,226.000000 110.000000,226.000000 
M151.010651,121.961960 
	C151.010651,121.961960 151.013321,122.015434 150.986526,122.036491 
	C150.986526,122.036491 150.984329,121.985451 151.010651,121.961960 
M55.592381,146.241608 
	C55.343639,146.438583 55.127815,146.666702 54.881668,146.969177 
	C54.881668,146.969177 55.049343,147.034729 55.410732,146.732346 
	C55.642704,146.516861 55.845089,146.276474 56.385715,145.716278 
	C56.620365,145.504166 56.826134,145.266983 57.499081,144.710403 
	C57.995529,144.137070 58.491978,143.563736 59.537762,142.845200 
	C60.037350,142.581436 60.536942,142.317688 61.639984,141.779846 
	C63.086018,140.513687 64.532051,139.247528 66.358398,137.925156 
	C66.710701,137.721207 67.062996,137.517273 67.415298,137.313339 
	C67.071968,136.949432 66.728638,136.585541 66.385307,136.221634 
	C66.259727,136.819443 66.134148,137.417236 65.349129,138.188461 
	C63.858753,139.420258 62.368378,140.652069 60.380161,142.104294 
	C59.921043,142.404861 59.461929,142.705444 58.495686,143.286331 
	C57.995155,143.856339 57.494621,144.426331 56.610580,145.272415 
	C56.367344,145.476303 56.158554,145.710876 55.592381,146.241608 
M107.367966,74.691956 
	C107.607666,74.489746 107.820244,74.262184 108.395401,73.739998 
	C108.642021,73.539055 108.852676,73.305649 109.414841,72.764046 
	C109.658638,72.557831 109.865311,72.319435 110.434883,72.005669 
	C110.801727,71.777832 111.168571,71.549988 111.535423,71.322144 
	C111.419785,71.175888 111.304146,71.029625 111.188515,70.883362 
	C110.781120,71.248024 110.373734,71.612694 109.594849,72.270050 
	C109.357071,72.480888 109.149483,72.718147 108.605003,73.278198 
	C108.370659,73.491531 108.166702,73.730774 107.637444,74.299629 
	C107.410812,74.515259 107.204826,74.749084 106.643677,75.294838 
	C106.400757,75.501274 106.183403,75.731812 105.743507,76.051399 
	C105.624878,76.222534 105.506248,76.393661 105.387611,76.564789 
	C105.595444,76.378738 105.803276,76.192688 106.373787,75.698158 
	C106.606468,75.479805 106.814667,75.240181 107.367966,74.691956 
M61.498932,155.138123 
	C61.266068,155.348602 61.048397,155.573776 60.500214,156.148651 
	C60.286545,156.388794 60.101913,156.649490 59.572659,157.223145 
	C59.337845,157.436722 59.132202,157.675430 58.802002,157.965057 
	C58.802002,157.965057 58.691116,158.237045 58.691116,158.237045 
	C58.691116,158.237045 59.045574,158.031799 59.413006,157.734772 
	C59.650715,157.524902 59.863232,157.292023 60.430607,156.752319 
	C60.677620,156.551331 60.901985,156.327621 61.455650,155.768829 
	C61.685524,155.554001 61.899025,155.323990 62.116207,154.995148 
	C62.116207,154.995148 61.866402,154.844193 61.498932,155.138123 
M208.352661,127.903084 
	C208.338501,127.643539 208.324341,127.383995 208.310181,127.124443 
	C208.068039,127.294762 207.825897,127.465073 207.490143,127.852142 
	C207.490143,127.852142 207.679276,128.217300 207.679276,128.217300 
	C207.679276,128.217300 208.087860,128.102448 208.352661,127.903084 
M172.993423,135.902557 
	C172.993423,135.902557 172.878632,136.106857 173.228317,136.554245 
	C173.789215,137.059509 174.350098,137.564774 175.396591,138.464828 
	C177.636154,138.999283 178.912750,143.481461 182.933380,139.729233 
	C179.896759,138.982559 177.531677,138.401001 174.829224,137.359665 
	C174.239914,136.881775 173.650604,136.403870 172.993423,135.902557 
M29.734964,81.968811 
	C30.515228,81.342743 31.295492,80.716675 32.704552,79.840385 
	C34.837177,78.256142 36.969807,76.671898 39.536903,74.879822 
	C39.807182,74.686340 39.998196,74.433075 40.797935,73.970825 
	C47.276707,70.075241 53.755478,66.179665 60.234245,62.284077 
	C59.921349,61.789967 59.608452,61.295853 59.295555,60.801743 
	C52.621391,65.019211 45.947231,69.236679 38.974880,73.704506 
	C38.782291,73.880310 38.607296,74.072159 37.860611,74.629570 
	C35.698330,76.205559 33.536049,77.781548 30.817556,79.683777 
	C29.942760,80.296455 29.067966,80.909142 27.942228,81.968689 
	C28.348160,82.036446 28.754091,82.104202 29.734964,81.968811 
M213.530426,122.812172 
	C214.051926,122.107475 214.573425,121.402771 215.094925,120.698074 
	C214.840958,120.518013 214.587006,120.337959 214.333038,120.157898 
	C213.767822,120.997948 213.202621,121.837997 212.553070,122.874649 
	C212.553070,122.874649 212.715103,123.199554 212.715103,123.199554 
	C212.715103,123.199554 213.066116,123.078651 213.530426,122.812172 
M68.719894,146.817963 
	C70.800110,143.740860 72.880318,140.663742 74.960526,137.586639 
	C74.429016,137.263458 73.897507,136.940277 73.365990,136.617096 
	C71.538536,140.046631 69.711082,143.476181 67.865959,147.005554 
	C67.865959,147.005554 68.163239,147.189285 68.719894,146.817963 
M45.244843,154.099823 
	C41.382233,157.950455 37.519619,161.801086 33.204201,165.980316 
	C32.461594,166.758514 31.718990,167.536713 30.976387,168.314926 
	C31.278091,168.549652 31.579798,168.784378 31.881502,169.019104 
	C32.633499,168.060547 33.385494,167.101990 34.731754,165.827850 
	C38.573277,161.964325 42.414803,158.100800 46.286491,154.087585 
	C46.286491,154.087585 46.151638,153.857254 46.151638,153.857254 
	C46.151638,153.857254 45.879589,153.860947 45.244843,154.099823 
M127.011169,99.160454 
	C127.011169,99.160454 127.225296,99.045876 127.225296,99.045876 
	C127.225296,99.045876 127.227676,98.794830 126.727745,98.259987 
	C123.745125,96.828590 120.592110,95.821785 118.424286,99.220154 
	C116.935066,101.554718 116.455688,104.333702 119.656624,107.058014 
	C120.434410,102.379585 120.623703,97.603027 127.011169,99.160454 
M33.710258,178.840805 
	C38.378361,176.296494 43.046463,173.752182 47.714565,171.207870 
	C41.508419,169.609955 34.701824,173.842194 32.724098,178.994690 
	C32.590687,179.112152 32.457272,179.229630 32.323864,179.347107 
	C32.555485,179.242950 32.787102,179.138809 33.710258,178.840805 
M152.122894,105.849022 
	C153.918793,105.750191 155.714691,105.651360 157.798599,105.536674 
	C158.046844,104.179298 158.387741,102.315277 159.015472,98.882843 
	C155.780334,99.386887 153.156219,99.275047 151.223541,100.376465 
	C150.537888,100.767204 151.534988,104.110718 152.122894,105.849022 
M56.369179,117.278572 
	C57.469612,117.496086 58.570045,117.713600 59.670483,117.931114 
	C58.989822,117.044914 58.449409,115.581352 57.603405,115.375847 
	C54.497105,114.621300 51.289314,114.284546 48.119720,113.790558 
	C47.962025,114.305099 47.804329,114.819633 47.646633,115.334175 
	C48.780495,115.855270 49.870705,116.629951 51.059059,116.834518 
	C52.612148,117.101875 54.242882,116.918221 56.369179,117.278572 
M124.858276,101.520866 
	C125.053360,103.743942 125.248436,105.967010 125.443520,108.190086 
	C127.180893,107.140640 128.518143,105.655289 128.438385,104.250389 
	C128.379761,103.217789 126.465965,102.290512 124.858276,101.520866 
M68.173721,57.042011 
	C66.201469,57.962444 64.229218,58.882877 62.256969,59.803310 
	C62.450104,60.211651 62.643242,60.619995 62.836380,61.028336 
	C65.711823,59.753826 68.587265,58.479313 71.462715,57.204803 
	C71.305183,56.828117 71.147659,56.451431 70.990135,56.074749 
	C70.250854,56.310883 69.511581,56.547016 68.173721,57.042011 
M140.325760,119.874939 
	C140.978729,121.617393 141.631714,123.359848 142.284683,125.102295 
	C142.918213,124.739861 143.551743,124.377426 144.185257,124.014992 
	C142.986328,122.560707 141.787384,121.106430 140.325760,119.874939 
M198.051407,134.676697 
	C196.914871,135.187149 195.778351,135.697601 194.641830,136.208054 
	C195.175003,136.760590 195.708160,137.313141 196.241318,137.865677 
	C197.856262,136.751328 199.471222,135.636993 201.086166,134.522644 
	C200.905472,134.209885 200.724762,133.897125 200.544052,133.584366 
	C199.865585,133.845306 199.187119,134.106247 198.051407,134.676697 
M98.586464,81.830551 
	C97.320427,81.963211 96.054382,82.095863 94.788345,82.228523 
	C94.894913,82.650528 95.001480,83.072525 95.108040,83.494530 
	C96.203285,83.060074 97.298531,82.625626 98.586464,81.830551 
M119.966461,60.918545 
	C119.817802,60.437351 119.669151,59.956158 119.520493,59.474964 
	C118.993340,60.417980 118.466187,61.360992 117.939034,62.304008 
	C118.173172,62.433403 118.407318,62.562798 118.641457,62.692192 
	C119.030296,62.237419 119.419128,61.782642 119.966461,60.918545 
M65.492508,151.218231 
	C65.551468,151.715454 65.610428,152.212662 65.669388,152.709885 
	C66.055351,152.567673 66.441315,152.425461 66.827278,152.283234 
	C66.492592,151.889496 66.157913,151.495758 65.492508,151.218231 
M149.766541,137.699524 
	C149.375839,138.121521 148.985138,138.543518 148.594437,138.965500 
	C148.875183,139.081146 149.386871,139.322144 149.402267,139.293793 
	C149.661301,138.816483 149.858490,138.305588 149.766541,137.699524 
M168.174744,132.631516 
	C168.421829,133.061462 168.642548,133.512192 168.946304,133.897430 
	C168.988663,133.951172 169.439545,133.682816 169.701309,133.563553 
	C169.291351,133.212677 168.881378,132.861786 168.174744,132.631516 
M203.565750,130.597153 
	C203.838516,130.967346 204.111267,131.337540 204.384003,131.707733 
	C204.692657,131.367279 205.001312,131.026840 205.309982,130.686401 
	C204.821350,130.563019 204.332703,130.439636 203.565750,130.597153 
M139.659622,114.791801 
	C139.631668,114.965363 139.603699,115.138916 139.575729,115.312477 
	C139.658173,115.156403 139.740601,115.000320 139.659622,114.791801 
M138.552444,147.301041 
	C138.596756,147.192368 138.641068,147.083710 138.685379,146.975037 
	C138.620544,147.051056 138.555710,147.127090 138.552444,147.301041 
M25.426243,83.403908 
	C25.670980,83.690872 25.892467,84.007568 26.183617,84.235161 
	C26.231461,84.272560 26.585423,83.918358 26.797911,83.745140 
	C26.491297,83.543350 26.184681,83.341560 25.426243,83.403908 
M90.692917,85.277321 
	C90.692917,85.277321 90.836678,85.018845 90.836678,85.018845 
	C90.836678,85.018845 90.627602,85.216080 90.692917,85.277321 
M101.936775,79.113045 
	C101.936775,79.113045 102.107460,78.893265 102.107460,78.893265 
	C102.107460,78.893265 101.865685,79.028305 101.936775,79.113045 
M142.085510,144.924942 
	C142.085510,144.924942 141.926483,145.132523 141.926483,145.132523 
	C141.926483,145.132523 142.153412,145.004837 142.085510,144.924942 
M115.947235,66.090294 
	C115.947235,66.090294 116.091690,65.905579 116.091690,65.905579 
	C116.091690,65.905579 115.887550,66.018333 115.947235,66.090294 
M192.557312,139.698761 
	C192.498550,139.682709 192.439804,139.666656 192.557312,139.698761 
M50.500340,150.085480 
	C50.500340,150.085480 50.569656,149.910950 50.569656,149.910950 
	C50.569656,149.910950 50.422394,150.019684 50.500340,150.085480 
M52.954975,163.489716 
	C52.954975,163.489716 52.997086,163.440964 52.954975,163.489716 
M121.485138,62.011204 
	C121.485138,62.011204 121.516586,62.002174 121.485138,62.011204 
M113.919617,68.500473 
	C113.919617,68.500473 113.978813,68.428642 113.919617,68.500473 
M52.448368,148.518616 
	C52.448368,148.518616 52.540443,148.473602 52.448368,148.518616 
M119.531441,54.488312 
	C119.531441,54.488312 119.490036,54.499588 119.531441,54.488312 
M122.480507,56.519680 
	C122.480507,56.519680 122.501381,56.529846 122.480507,56.519680 
M51.522305,167.485397 
	C51.522305,167.485397 51.482067,167.494949 51.522305,167.485397 
M122.516312,58.520950 
	C122.516312,58.520950 122.519005,58.495358 122.516312,58.520950 
M146.447479,141.493988 
	C146.447479,141.493988 146.508881,141.466385 146.447479,141.493988 
M210.461334,125.555916 
	C210.461334,125.555916 210.391174,125.433754 210.461334,125.555916 
z"/>
<path fill="#202020" opacity="1.000000" stroke="none" 
	d="
M151.943390,105.977638 
	C151.534988,104.110718 150.537888,100.767204 151.223541,100.376465 
	C153.156219,99.275047 155.780334,99.386887 159.015472,98.882843 
	C158.387741,102.315277 158.046844,104.179298 157.798599,105.536674 
	C155.714691,105.651360 153.918793,105.750191 151.943390,105.977638 
z"/>
<path fill="#0D0D0D" opacity="1.000000" stroke="none" 
	d="
M32.951351,178.951797 
	C34.701824,173.842194 41.508419,169.609955 47.714565,171.207870 
	C43.046463,173.752182 38.378361,176.296494 33.347923,178.916779 
	C32.985588,178.992767 32.951351,178.951797 32.951351,178.951797 
z"/>
<path fill="#474747" opacity="1.000000" stroke="none" 
	d="
M39.273067,73.454147 
	C45.947231,69.236679 52.621391,65.019211 59.295555,60.801743 
	C59.608452,61.295853 59.921349,61.789967 60.234245,62.284077 
	C53.755478,66.179665 47.276707,70.075241 40.245186,73.878372 
	C39.552643,73.675331 39.412853,73.564735 39.273067,73.454147 
z"/>
<path fill="#1D1D1D" opacity="1.000000" stroke="none" 
	d="
M126.890343,99.132652 
	C120.623703,97.603027 120.434410,102.379585 119.656624,107.058014 
	C116.455688,104.333702 116.935066,101.554718 118.424286,99.220154 
	C120.592110,95.821785 123.745125,96.828590 126.893822,98.612312 
	C127.059898,98.964638 126.890343,99.132652 126.890343,99.132652 
z"/>
<path fill="#252525" opacity="1.000000" stroke="none" 
	d="
M56.104694,117.103592 
	C54.242882,116.918221 52.612148,117.101875 51.059059,116.834518 
	C49.870705,116.629951 48.780495,115.855270 47.646633,115.334175 
	C47.804329,114.819633 47.962025,114.305099 48.119720,113.790558 
	C51.289314,114.284546 54.497105,114.621300 57.603405,115.375847 
	C58.449409,115.581352 58.989822,117.044914 59.670479,117.931114 
	C58.570045,117.713600 57.469612,117.496086 56.104694,117.103592 
z"/>
<path fill="#1D1D1D" opacity="1.000000" stroke="none" 
	d="
M33.657013,165.651733 
	C37.519619,161.801086 41.382233,157.950455 45.657192,154.073669 
	C46.069542,154.047516 46.256325,154.237274 46.256325,154.237274 
	C42.414803,158.100800 38.573277,161.964325 34.314651,165.862579 
	C33.897545,165.897293 33.657017,165.651733 33.657013,165.651733 
z"/>
<path fill="#1D1D1D" opacity="1.000000" stroke="none" 
	d="
M125.118591,101.418579 
	C126.465965,102.290512 128.379761,103.217789 128.438385,104.250389 
	C128.518143,105.655289 127.180893,107.140640 125.443520,108.190086 
	C125.248436,105.967010 125.053360,103.743942 125.118591,101.418579 
z"/>
<path fill="#181818" opacity="1.000000" stroke="none" 
	d="
M67.883621,146.905716 
	C69.711082,143.476181 71.538536,140.046631 73.365990,136.617096 
	C73.897507,136.940277 74.429016,137.263458 74.960526,137.586639 
	C72.880318,140.663742 70.800110,143.740860 68.371300,146.933090 
	C68.022705,147.048218 67.883621,146.905716 67.883621,146.905716 
z"/>
<path fill="#474747" opacity="1.000000" stroke="none" 
	d="
M68.473007,56.912582 
	C69.511581,56.547016 70.250854,56.310883 70.990135,56.074749 
	C71.147659,56.451431 71.305183,56.828117 71.462715,57.204803 
	C68.587265,58.479313 65.711823,59.753826 62.836380,61.028336 
	C62.643242,60.619995 62.450104,60.211651 62.256969,59.803310 
	C64.229218,58.882877 66.201469,57.962444 68.473007,56.912582 
z"/>
<path fill="#181818" opacity="1.000000" stroke="none" 
	d="
M140.457108,119.763542 
	C141.787384,121.106430 142.986328,122.560707 144.185257,124.014992 
	C143.551743,124.377426 142.918213,124.739861 142.284683,125.102295 
	C141.631714,123.359848 140.978729,121.617393 140.457108,119.763542 
z"/>
<path fill="#181818" opacity="1.000000" stroke="none" 
	d="
M175.166595,137.819458 
	C177.531677,138.401001 179.896759,138.982559 182.933380,139.729233 
	C178.912750,143.481461 177.636154,138.999283 175.218323,138.204681 
	C175.040054,137.944550 175.166595,137.819458 175.166595,137.819458 
z"/>
<path fill="#2F2F2F" opacity="1.000000" stroke="none" 
	d="
M198.280029,134.521942 
	C199.187119,134.106247 199.865585,133.845306 200.544052,133.584366 
	C200.724762,133.897125 200.905472,134.209885 201.086166,134.522644 
	C199.471222,135.636993 197.856262,136.751328 196.241318,137.865677 
	C195.708160,137.313141 195.175003,136.760590 194.641830,136.208054 
	C195.778351,135.697601 196.914871,135.187149 198.280029,134.521942 
z"/>
<path fill="#474747" opacity="1.000000" stroke="none" 
	d="
M31.373768,79.357536 
	C33.536049,77.781548 35.698330,76.205559 38.317673,74.657288 
	C38.883968,74.819229 38.993202,74.953445 39.102432,75.087654 
	C36.969807,76.671898 34.837177,78.256142 32.214912,79.781982 
	C31.608105,79.601562 31.490936,79.479553 31.373768,79.357536 
z"/>
<path fill="#181818" opacity="1.000000" stroke="none" 
	d="
M98.490112,82.010864 
	C97.298531,82.625626 96.203285,83.060074 95.108040,83.494530 
	C95.001480,83.072525 94.894913,82.650528 94.788345,82.228523 
	C96.054382,82.095863 97.320427,81.963211 98.490112,82.010864 
z"/>
<path fill="#1D1D1D" opacity="1.000000" stroke="none" 
	d="
M119.887215,61.123207 
	C119.419128,61.782642 119.030296,62.237419 118.641457,62.692192 
	C118.407318,62.562798 118.173172,62.433403 117.939034,62.304008 
	C118.466187,61.360992 118.993340,60.417980 119.520493,59.474964 
	C119.669151,59.956158 119.817802,60.437351 119.887215,61.123207 
z"/>
<path fill="#1D1D1D" opacity="1.000000" stroke="none" 
	d="
M60.878002,141.883865 
	C62.368378,140.652069 63.858753,139.420258 65.672333,138.092957 
	C65.995544,137.997437 65.978081,137.981369 65.978081,137.981369 
	C64.532051,139.247528 63.086018,140.513687 61.298630,141.873810 
	C60.957279,141.967789 60.878002,141.883865 60.878002,141.883865 
z"/>
<path fill="#181818" opacity="1.000000" stroke="none" 
	d="
M65.657867,151.160126 
	C66.157913,151.495758 66.492592,151.889496 66.827271,152.283234 
	C66.441315,152.425461 66.055351,152.567673 65.669388,152.709885 
	C65.610428,152.212662 65.551468,151.715454 65.657867,151.160126 
z"/>
<path fill="#181818" opacity="1.000000" stroke="none" 
	d="
M149.917969,137.750839 
	C149.858490,138.305588 149.661301,138.816483 149.402267,139.293793 
	C149.386871,139.322144 148.875183,139.081146 148.594437,138.965500 
	C148.985138,138.543518 149.375839,138.121521 149.917969,137.750839 
z"/>
<path fill="#1D1D1D" opacity="1.000000" stroke="none" 
	d="
M34.017517,166.020355 
	C33.385494,167.101990 32.633499,168.060547 31.881502,169.019104 
	C31.579798,168.784378 31.278091,168.549652 30.976387,168.314926 
	C31.718990,167.536713 32.461594,166.758514 33.430611,165.816025 
	C33.657017,165.651733 33.897545,165.897293 34.017517,166.020355 
z"/>
<path fill="#181818" opacity="1.000000" stroke="none" 
	d="
M168.323090,132.571213 
	C168.881378,132.861786 169.291351,133.212677 169.701309,133.563553 
	C169.439545,133.682816 168.988663,133.951172 168.946304,133.897430 
	C168.642548,133.512192 168.421829,133.061462 168.323090,132.571213 
z"/>
<path fill="#2F2F2F" opacity="1.000000" stroke="none" 
	d="
M203.704910,130.456696 
	C204.332703,130.439636 204.821350,130.563019 205.309967,130.686401 
	C205.001312,131.026840 204.692657,131.367279 204.384003,131.707733 
	C204.111267,131.337540 203.838516,130.967346 203.704910,130.456696 
z"/>
<path fill="#2F2F2F" opacity="1.000000" stroke="none" 
	d="
M212.637421,122.678055 
	C213.202621,121.837997 213.767822,120.997948 214.333038,120.157898 
	C214.587006,120.337959 214.840958,120.518013 215.094925,120.698074 
	C214.573425,121.402771 214.051926,122.107475 213.191132,122.845245 
	C212.851822,122.878311 212.637421,122.678055 212.637421,122.678055 
z"/>
<path fill="#181818" opacity="1.000000" stroke="none" 
	d="
M139.741333,114.818024 
	C139.740601,115.000320 139.658173,115.156403 139.575729,115.312477 
	C139.603699,115.138916 139.631668,114.965363 139.741333,114.818024 
z"/>
<path fill="#474747" opacity="1.000000" stroke="none" 
	d="
M31.900515,79.907089 
	C31.295492,80.716675 30.515228,81.342743 29.206249,81.907158 
	C28.516077,81.737610 28.354624,81.629715 28.193171,81.521820 
	C29.067966,80.909142 29.942760,80.296455 31.095661,79.520660 
	C31.490936,79.479553 31.608105,79.601562 31.900515,79.907089 
z"/>
<path fill="#181818" opacity="1.000000" stroke="none" 
	d="
M138.521667,147.252075 
	C138.555710,147.127090 138.620544,147.051056 138.685379,146.975037 
	C138.641068,147.083710 138.596756,147.192368 138.521667,147.252075 
z"/>
<path fill="#1D1D1D" opacity="1.000000" stroke="none" 
	d="
M109.966339,71.977356 
	C110.373734,71.612694 110.781120,71.248024 111.188515,70.883362 
	C111.304146,71.029625 111.419785,71.175888 111.535423,71.322144 
	C111.168571,71.549988 110.801727,71.777832 110.218140,72.007660 
	C110.001389,72.009651 109.966339,71.977356 109.966339,71.977356 
z"/>
<path fill="#1D1D1D" opacity="1.000000" stroke="none" 
	d="
M66.002060,138.006241 
	C66.134148,137.417236 66.259727,136.819443 66.385307,136.221634 
	C66.728638,136.585541 67.071968,136.949432 67.415298,137.313339 
	C67.062996,137.517273 66.710701,137.721207 66.168243,137.953262 
	C65.978081,137.981369 65.995544,137.997437 66.002060,138.006241 
z"/>
<path fill="#474747" opacity="1.000000" stroke="none" 
	d="
M25.652155,83.271835 
	C26.184681,83.341560 26.491297,83.543350 26.797909,83.745140 
	C26.585423,83.918358 26.231461,84.272560 26.183617,84.235161 
	C25.892467,84.007568 25.670980,83.690872 25.652155,83.271835 
z"/>
<path fill="#181818" opacity="1.000000" stroke="none" 
	d="
M90.660263,85.246704 
	C90.627602,85.216080 90.836678,85.018845 90.836678,85.018845 
	C90.836678,85.018845 90.692917,85.277321 90.660263,85.246704 
z"/>
<path fill="#1D1D1D" opacity="1.000000" stroke="none" 
	d="
M58.988422,142.990402 
	C58.491978,143.563736 57.995529,144.137070 57.249512,144.855194 
	C56.999947,145.000000 56.994080,144.996323 56.994083,144.996323 
	C57.494621,144.426331 57.995155,143.856339 58.747238,143.142670 
	C58.998795,142.999008 58.988422,142.990402 58.988422,142.990402 
z"/>
<path fill="#181818" opacity="1.000000" stroke="none" 
	d="
M101.901230,79.070679 
	C101.865685,79.028305 102.107460,78.893265 102.107460,78.893265 
	C102.107460,78.893265 101.936775,79.113045 101.901230,79.070679 
z"/>
<path fill="#181818" opacity="1.000000" stroke="none" 
	d="
M142.119461,144.964890 
	C142.153412,145.004837 141.926483,145.132523 141.926483,145.132523 
	C141.926483,145.132523 142.085510,144.924942 142.119461,144.964890 
z"/>
<path fill="#1D1D1D" opacity="1.000000" stroke="none" 
	d="
M115.917389,66.054314 
	C115.887550,66.018333 116.091690,65.905579 116.091690,65.905579 
	C116.091690,65.905579 115.947235,66.090294 115.917389,66.054314 
z"/>
<path fill="#2F2F2F" opacity="1.000000" stroke="none" 
	d="
M192.469177,139.674683 
	C192.439804,139.666656 192.498550,139.682709 192.469177,139.674683 
z"/>
<path fill="#181818" opacity="1.000000" stroke="none" 
	d="
M106.011108,76.006638 
	C105.803276,76.192688 105.595444,76.378738 105.387611,76.564789 
	C105.506248,76.393661 105.624878,76.222534 105.871750,76.025436 
	C105.999985,75.999474 106.011116,76.006645 106.011108,76.006638 
z"/>
<path fill="#181818" opacity="1.000000" stroke="none" 
	d="
M173.061295,135.925980 
	C173.650604,136.403870 174.239914,136.881775 174.997910,137.589569 
	C175.166595,137.819458 175.040054,137.944550 174.975525,138.007294 
	C174.350098,137.564774 173.789215,137.059509 173.098755,136.284943 
	C172.969193,136.015640 173.061295,135.925980 173.061295,135.925980 
z"/>
<path fill="#0D0D0D" opacity="1.000000" stroke="none" 
	d="
M33.002151,179.013718 
	C32.787102,179.138809 32.555485,179.242950 32.323860,179.347107 
	C32.457272,179.229630 32.590687,179.112152 32.837723,178.973236 
	C32.951351,178.951797 32.985588,178.992767 33.002151,179.013718 
z"/>
<path fill="#1D1D1D" opacity="1.000000" stroke="none" 
	d="
M59.000801,143.002502 
	C59.461929,142.705444 59.921043,142.404861 60.629082,141.994080 
	C60.878002,141.883865 60.957279,141.967789 60.996906,142.010864 
	C60.536942,142.317688 60.037350,142.581436 59.263092,142.917801 
	C58.988422,142.990402 58.998795,142.999008 59.000801,143.002502 
z"/>
<path fill="#2F2F2F" opacity="1.000000" stroke="none" 
	d="
M207.583755,127.635391 
	C207.825897,127.465073 208.068039,127.294762 208.310181,127.124451 
	C208.324341,127.383995 208.338501,127.643539 208.094635,127.885582 
	C207.836609,127.868080 207.583755,127.635399 207.583755,127.635391 
z"/>
<path fill="#1D1D1D" opacity="1.000000" stroke="none" 
	d="
M50.461365,150.052582 
	C50.422394,150.019684 50.569656,149.910950 50.569656,149.910950 
	C50.569656,149.910950 50.500340,150.085480 50.461365,150.052582 
z"/>
<path fill="#181818" opacity="1.000000" stroke="none" 
	d="
M59.045574,158.031799 
	C59.045574,158.031799 58.691116,158.237045 58.691116,158.237045 
	C58.691116,158.237045 58.802002,157.965057 58.900612,157.975983 
	C58.999218,157.986923 59.045574,158.031799 59.045574,158.031799 
z"/>
<path fill="#181818" opacity="1.000000" stroke="none" 
	d="
M52.976028,163.465332 
	C52.997086,163.440964 52.954975,163.489716 52.976028,163.465332 
z"/>
<path fill="#1D1D1D" opacity="1.000000" stroke="none" 
	d="
M121.500862,62.006691 
	C121.516586,62.002174 121.485138,62.011204 121.500862,62.006691 
z"/>
<path fill="#1D1D1D" opacity="1.000000" stroke="none" 
	d="
M113.949219,68.464554 
	C113.978813,68.428642 113.919617,68.500473 113.949219,68.464554 
z"/>
<path fill="#1D1D1D" opacity="1.000000" stroke="none" 
	d="
M52.494408,148.496109 
	C52.540443,148.473602 52.448368,148.518616 52.494408,148.496109 
z"/>
<path fill="#1D1D1D" opacity="1.000000" stroke="none" 
	d="
M119.510742,54.493950 
	C119.490036,54.499588 119.531441,54.488312 119.510742,54.493950 
z"/>
<path fill="#1D1D1D" opacity="1.000000" stroke="none" 
	d="
M122.490944,56.524765 
	C122.501381,56.529846 122.480507,56.519680 122.490944,56.524765 
z"/>
<path fill="#0D0D0D" opacity="1.000000" stroke="none" 
	d="
M51.502186,167.490173 
	C51.482067,167.494949 51.522305,167.485397 51.502186,167.490173 
z"/>
<path fill="#1D1D1D" opacity="1.000000" stroke="none" 
	d="
M122.517654,58.508156 
	C122.519005,58.495358 122.516312,58.520950 122.517654,58.508156 
z"/>
<path fill="#181818" opacity="1.000000" stroke="none" 
	d="
M58.977478,157.963104 
	C59.132202,157.675430 59.337845,157.436722 59.785767,157.105148 
	C59.998871,156.987152 60.050552,157.036148 60.050552,157.036148 
	C59.863232,157.292023 59.650715,157.524902 59.229290,157.883286 
	C59.045574,158.031799 58.999218,157.986923 58.977478,157.963104 
z"/>
<path fill="#181818" opacity="1.000000" stroke="none" 
	d="
M61.103706,156.081192 
	C60.901985,156.327621 60.677620,156.551331 60.240578,156.894226 
	C60.050552,157.036148 59.998871,156.987152 59.972595,156.958954 
	C60.101913,156.649490 60.286545,156.388794 60.738438,156.049606 
	C60.976662,155.950562 61.103706,156.081192 61.103706,156.081192 
z"/>
<path fill="#181818" opacity="1.000000" stroke="none" 
	d="
M62.096157,155.078781 
	C61.899025,155.323990 61.685524,155.554001 61.279678,155.925018 
	C61.103706,156.081192 60.976662,155.950562 60.911289,155.882080 
	C61.048397,155.573776 61.266068,155.348602 61.740459,155.049454 
	C61.981987,154.960785 62.096157,155.078781 62.096157,155.078781 
z"/>
<path fill="#181818" opacity="1.000000" stroke="none" 
	d="
M61.924194,154.902496 
	C61.866402,154.844193 62.116207,154.995148 62.106182,155.036957 
	C62.096157,155.078781 61.981987,154.960785 61.924194,154.902496 
z"/>
<path fill="#1D1D1D" opacity="1.000000" stroke="none" 
	d="
M108.972092,72.981834 
	C109.149483,72.718147 109.357071,72.480888 109.780594,72.123703 
	C109.966339,71.977356 110.001389,72.009651 110.018127,72.029259 
	C109.865311,72.319435 109.658638,72.557831 109.207962,72.885498 
	C109.001076,73.006950 108.972092,72.981834 108.972092,72.981834 
z"/>
<path fill="#1D1D1D" opacity="1.000000" stroke="none" 
	d="
M45.974564,153.954224 
	C45.879589,153.860947 46.151638,153.857254 46.151638,153.857254 
	C46.151638,153.857254 46.286491,154.087585 46.271408,154.162430 
	C46.256325,154.237274 46.069542,154.047516 45.974564,153.954224 
z"/>
<path fill="#1D1D1D" opacity="1.000000" stroke="none" 
	d="
M107.993126,73.995918 
	C108.166702,73.730774 108.370659,73.491531 108.788544,73.130020 
	C108.972092,72.981834 109.001076,73.006950 109.014221,73.023376 
	C108.852676,73.305649 108.642021,73.539055 108.197754,73.870132 
	C108.000099,74.000275 107.993126,73.995918 107.993126,73.995918 
z"/>
<path fill="#474747" opacity="1.000000" stroke="none" 
	d="
M38.612312,74.482536 
	C38.607296,74.072159 38.782291,73.880310 39.123974,73.579330 
	C39.412853,73.564735 39.552643,73.675331 39.901192,73.952972 
	C39.998196,74.433075 39.807182,74.686340 39.319668,74.983734 
	C38.993202,74.953445 38.883968,74.819229 38.612312,74.482536 
z"/>
<path fill="#181818" opacity="1.000000" stroke="none" 
	d="
M172.923920,136.061249 
	C172.878632,136.106857 172.993423,135.902557 173.027359,135.914276 
	C173.061295,135.925980 172.969193,136.015640 172.923920,136.061249 
z"/>
<path fill="#181818" opacity="1.000000" stroke="none" 
	d="
M68.092972,147.118744 
	C68.163239,147.189285 67.865959,147.005554 67.874786,146.955627 
	C67.883621,146.905716 68.022705,147.048218 68.092972,147.118744 
z"/>
<path fill="#1D1D1D" opacity="1.000000" stroke="none" 
	d="
M55.049343,147.034729 
	C55.049343,147.034729 54.881668,146.969177 54.939590,146.976700 
	C54.997513,146.984222 55.049343,147.034729 55.049343,147.034729 
z"/>
<path fill="#1D1D1D" opacity="1.000000" stroke="none" 
	d="
M108.002899,74.004776 
	C107.820244,74.262184 107.607666,74.489746 107.183029,74.846603 
	C106.998093,75.001244 107.019485,75.001091 107.019485,75.001091 
	C107.204826,74.749084 107.410812,74.515259 107.815285,74.147774 
	C107.993126,73.995918 108.000099,74.000275 108.002899,74.004776 
z"/>
<path fill="#1D1D1D" opacity="1.000000" stroke="none" 
	d="
M56.017887,146.011185 
	C55.845089,146.276474 55.642704,146.516861 55.230038,146.883545 
	C55.049343,147.034729 54.997513,146.984222 54.971214,146.955093 
	C55.127815,146.666702 55.343639,146.438583 55.795975,146.119659 
	C55.999569,145.997711 56.017887,146.011185 56.017887,146.011185 
z"/>
<path fill="#1D1D1D" opacity="1.000000" stroke="none" 
	d="
M57.001484,145.002365 
	C56.826134,145.266983 56.620365,145.504166 56.201801,145.863739 
	C56.017887,146.011185 55.999569,145.997711 55.991890,145.986908 
	C56.158554,145.710876 56.367344,145.476303 56.802330,145.134369 
	C56.994080,144.996323 56.999947,145.000000 57.001484,145.002365 
z"/>
<path fill="#181818" opacity="1.000000" stroke="none" 
	d="
M106.998230,74.990265 
	C106.814667,75.240181 106.606468,75.479805 106.192451,75.852402 
	C106.011116,76.006645 105.999985,75.999474 105.995804,75.992958 
	C106.183403,75.731812 106.400757,75.501274 106.831581,75.147964 
	C107.019485,75.001091 106.998093,75.001244 106.998230,74.990265 
z"/>
<path fill="#474747" opacity="1.000000" stroke="none" 
	d="
M28.918777,82.008728 
	C28.754091,82.104202 28.348160,82.036446 28.067699,81.745255 
	C28.354624,81.629715 28.516077,81.737610 28.918777,82.008728 
z"/>
<path fill="#1D1D1D" opacity="1.000000" stroke="none" 
	d="
M127.143784,98.879730 
	C127.227676,98.794830 127.225296,99.045876 127.225296,99.045876 
	C127.225296,99.045876 127.011169,99.160454 126.950760,99.146553 
	C126.890343,99.132652 127.059898,98.964638 127.143784,98.879730 
z"/>
<path fill="#181818" opacity="1.000000" stroke="none" 
	d="
M146.478180,141.480194 
	C146.508881,141.466385 146.447479,141.493988 146.478180,141.480194 
z"/>
<path fill="#181818" opacity="1.000000" stroke="none" 
	d="
M151.013321,122.015434 
	C151.013321,122.015434 151.010651,121.961960 151.005890,121.980148 
	C151.001129,121.998337 151.013321,122.015434 151.013321,122.015434 
z"/>
<path fill="#181818" opacity="1.000000" stroke="none" 
	d="
M150.992737,121.991898 
	C150.984329,121.985451 150.986526,122.036491 150.999924,122.025963 
	C151.013321,122.015434 151.001129,121.998337 150.992737,121.991898 
z"/>
<path fill="#2F2F2F" opacity="1.000000" stroke="none" 
	d="
M212.958969,122.978485 
	C213.066116,123.078651 212.715103,123.199554 212.715103,123.199554 
	C212.715103,123.199554 212.553070,122.874649 212.595245,122.776352 
	C212.637421,122.678055 212.851822,122.878311 212.958969,122.978485 
z"/>
<path fill="#2F2F2F" opacity="1.000000" stroke="none" 
	d="
M210.426254,125.494835 
	C210.391174,125.433754 210.461334,125.555916 210.426254,125.494835 
z"/>
<path fill="#2F2F2F" opacity="1.000000" stroke="none" 
	d="
M207.962234,127.985260 
	C208.087860,128.102448 207.679276,128.217300 207.679276,128.217300 
	C207.679276,128.217300 207.490143,127.852142 207.536957,127.743774 
	C207.583755,127.635399 207.836609,127.868080 207.962234,127.985260 
z"/>
</svg>