<svg version="1.1" id="Layer_1" xmlns="http://www.w3.org/2000/svg" xmlns:xlink="http://www.w3.org/1999/xlink" x="0px" y="0px"
	 width="100%" viewBox="0 0 512 512" enable-background="new 0 0 512 512" xml:space="preserve">
<path fill="#000000" opacity="1.000000" stroke="none" 
	d="
M242.000000,513.000000 
	C161.352890,513.000000 81.205780,513.000000 1.029336,513.000000 
	C1.029336,342.394531 1.029336,171.789062 1.029336,1.091791 
	C171.563797,1.091791 342.127655,1.091791 512.845764,1.091791 
	C512.845764,171.666565 512.845764,342.333252 512.845764,513.000000 
	C422.789032,513.000000 332.644501,513.000000 242.000000,513.000000 
M408.129944,235.000031 
	C308.170227,234.999969 208.210526,235.012329 108.250824,234.972687 
	C101.382408,234.969971 94.907257,236.875961 90.739166,242.018127 
	C84.423920,249.809204 84.159668,259.339844 88.219215,268.146454 
	C91.855209,276.034271 99.452347,278.968872 107.906425,278.972534 
	C207.366318,279.015594 306.826233,279.008240 406.286133,278.985138 
	C414.418762,278.983246 421.721924,276.071533 425.425415,268.834320 
	C429.463593,260.942932 429.444153,252.306793 424.740509,244.216049 
	C421.233704,238.183945 415.227875,236.452911 408.129944,235.000031 
M369.500000,129.000031 
	C324.011322,129.000046 278.522675,128.991913 233.034042,129.030853 
	C231.279129,129.032364 229.453094,129.253906 227.781647,129.767899 
	C217.643753,132.885437 211.471054,143.927628 214.128693,155.785828 
	C216.301376,165.480148 222.183914,171.890701 234.229630,171.925323 
	C292.048126,172.091522 349.867432,172.028244 407.686188,171.918671 
	C410.655731,171.913040 413.776337,171.116028 416.564209,170.020020 
	C427.285400,165.805191 429.574677,154.100159 427.417267,143.999496 
	C425.467590,134.871628 416.530365,128.329636 407.481445,128.830582 
	C395.188843,129.511063 382.830261,129.000046 369.500000,129.000031 
M257.500000,385.000000 
	C265.495270,385.000000 273.490509,385.006348 281.485779,384.993713 
	C282.814056,384.991638 284.300507,385.283630 285.445923,384.802246 
	C296.860413,380.005035 301.507660,372.858276 299.840546,359.562775 
	C298.401550,348.086426 291.104370,342.087219 279.616852,342.060913 
	C221.818314,341.928436 164.019226,341.971558 106.220596,342.082245 
	C103.250351,342.087952 100.078148,342.820953 97.350388,344.015503 
	C87.880180,348.162720 85.830437,356.209106 85.883194,365.747162 
	C85.938080,375.669464 96.134682,385.250397 105.091690,385.183044 
	C155.558731,384.803711 206.030106,385.000000 257.500000,385.000000 
z"/>
<path fill="#FFDDCC" opacity="1.000000" stroke="none" 
	d="
M408.587433,235.001465 
	C415.227875,236.452911 421.233704,238.183945 424.740509,244.216049 
	C429.444153,252.306793 429.463593,260.942932 425.425415,268.834320 
	C421.721924,276.071533 414.418762,278.983246 406.286133,278.985138 
	C306.826233,279.008240 207.366318,279.015594 107.906425,278.972534 
	C99.452347,278.968872 91.855209,276.034271 88.219215,268.146454 
	C84.159668,259.339844 84.423920,249.809204 90.739166,242.018127 
	C94.907257,236.875961 101.382408,234.969971 108.250824,234.972687 
	C208.210526,235.012329 308.170227,234.999969 408.587433,235.001465 
z"/>
<path fill="#FFDDCC" opacity="1.000000" stroke="none" 
	d="
M370.000000,129.000031 
	C382.830261,129.000046 395.188843,129.511063 407.481445,128.830582 
	C416.530365,128.329636 425.467590,134.871628 427.417267,143.999496 
	C429.574677,154.100159 427.285400,165.805191 416.564209,170.020020 
	C413.776337,171.116028 410.655731,171.913040 407.686188,171.918671 
	C349.867432,172.028244 292.048126,172.091522 234.229630,171.925323 
	C222.183914,171.890701 216.301376,165.480148 214.128693,155.785828 
	C211.471054,143.927628 217.643753,132.885437 227.781647,129.767899 
	C229.453094,129.253906 231.279129,129.032364 233.034042,129.030853 
	C278.522675,128.991913 324.011322,129.000046 370.000000,129.000031 
z"/>
<path fill="#FFDDCC" opacity="1.000000" stroke="none" 
	d="
M257.000000,385.000000 
	C206.030106,385.000000 155.558731,384.803711 105.091690,385.183044 
	C96.134682,385.250397 85.938080,375.669464 85.883194,365.747162 
	C85.830437,356.209106 87.880180,348.162720 97.350388,344.015503 
	C100.078148,342.820953 103.250351,342.087952 106.220596,342.082245 
	C164.019226,341.971558 221.818314,341.928436 279.616852,342.060913 
	C291.104370,342.087219 298.401550,348.086426 299.840546,359.562775 
	C301.507660,372.858276 296.860413,380.005035 285.445923,384.802246 
	C284.300507,385.283630 282.814056,384.991638 281.485779,384.993713 
	C273.490509,385.006348 265.495270,385.000000 257.000000,385.000000 
z"/>
</svg>