<svg version="1.1" id="Layer_1" xmlns="http://www.w3.org/2000/svg" xmlns:xlink="http://www.w3.org/1999/xlink" x="0px" y="0px"
	 width="100%" viewBox="0 0 512 512" enable-background="new 0 0 512 512" xml:space="preserve">
<path fill="#F59B90" opacity="1.000000" stroke="none" 
	d="
M224.000000,1.000002 
	C245.354233,1.000000 266.708466,1.000000 288.190460,1.335368 
	C289.156006,2.111034 289.950592,2.797591 290.838226,2.953165 
	C298.832428,4.354274 306.902283,5.380178 314.837555,7.050238 
	C338.942841,12.123441 361.745728,21.003052 383.049469,33.146088 
	C406.402283,46.457100 427.476471,62.803600 445.678192,82.921463 
	C459.329224,98.009590 471.417419,114.107185 481.223083,131.805206 
	C496.994690,160.270889 507.516357,190.584686 511.081879,223.117905 
	C511.157379,223.807068 512.335938,224.375336 513.000000,225.000000 
	C513.000000,246.020889 513.000000,267.041779 512.665039,288.190308 
	C511.889465,289.155579 511.202271,289.949982 511.046753,290.837555 
	C509.645538,298.835083 508.629425,306.910828 506.947662,314.846466 
	C501.842834,338.934143 492.993774,361.732056 480.846527,383.039276 
	C467.279297,406.837250 450.636963,428.312378 430.010468,446.692627 
	C415.211761,459.879761 399.553589,471.735931 382.232391,481.242004 
	C353.697083,496.902557 323.425934,507.521698 290.882843,511.081848 
	C290.193542,511.157257 289.624908,512.335999 289.000000,513.000000 
	C267.979095,513.000000 246.958206,513.000000 225.809433,512.664917 
	C221.088669,511.531433 216.458435,510.903381 211.909393,509.905182 
	C192.308014,505.604095 173.073303,500.316467 154.507172,492.359070 
	C125.993507,480.138184 100.976395,462.886017 78.485001,441.828766 
	C71.773705,435.545410 65.489128,428.629944 59.983143,421.274872 
	C50.566345,408.695679 40.974972,396.085388 33.143852,382.514679 
	C16.957020,354.464172 6.878714,324.126038 2.919196,291.861938 
	C2.834661,291.173126 1.663987,290.617676 0.999999,290.000000 
	C1.000000,268.312439 1.000000,246.624878 1.327146,224.814224 
	C2.767435,219.520996 4.047586,214.380264 4.964180,209.175507 
	C8.516948,189.001556 14.532730,169.548981 23.086683,151.000427 
	C39.451519,115.514641 61.741505,84.316902 92.676804,60.027592 
	C105.161247,50.225243 118.121216,40.757557 131.868149,32.890945 
	C159.820419,16.895391 190.004761,6.816688 222.119446,2.919310 
	C222.813721,2.835053 223.376099,1.664051 224.000000,1.000002 
M301.114655,345.500000 
	C301.114655,278.795135 301.114655,212.090256 301.114655,145.038452 
	C285.874451,145.038452 271.568542,144.995102 257.263672,145.099182 
	C255.667450,145.110794 254.046738,145.875000 252.489059,146.434143 
	C236.195023,152.282883 219.908539,158.152679 203.629395,164.042755 
	C201.792496,164.707367 200.013687,165.532486 197.940720,166.394257 
	C202.133240,181.086136 206.213760,195.385559 210.362793,209.925110 
	C223.870590,206.259903 236.639740,202.795120 250.165833,199.124954 
	C250.165833,256.110626 250.165833,312.316254 250.165833,368.665344 
	C267.344666,368.665344 283.910797,368.665344 301.114868,368.665344 
	C301.114868,361.064301 301.114868,353.782135 301.114655,345.500000 
z"/>
<path fill="#000000" opacity="1.000000" stroke="none" 
	d="
M513.000000,224.531342 
	C512.335938,224.375336 511.157379,223.807068 511.081879,223.117905 
	C507.516357,190.584686 496.994690,160.270889 481.223083,131.805206 
	C471.417419,114.107185 459.329224,98.009590 445.678192,82.921463 
	C427.476471,62.803600 406.402283,46.457100 383.049469,33.146088 
	C361.745728,21.003052 338.942841,12.123441 314.837555,7.050238 
	C306.902283,5.380178 298.832428,4.354274 290.838226,2.953165 
	C289.950592,2.797591 289.156006,2.111034 288.659119,1.335368 
	C363.593719,1.000000 438.187408,1.000000 513.000000,1.000000 
	C513.000000,75.354088 513.000000,149.708389 513.000000,224.531342 
z"/>
<path fill="#000000" opacity="1.000000" stroke="none" 
	d="
M289.468658,513.000000 
	C289.624908,512.335999 290.193542,511.157257 290.882843,511.081848 
	C323.425934,507.521698 353.697083,496.902557 382.232391,481.242004 
	C399.553589,471.735931 415.211761,459.879761 430.010468,446.692627 
	C450.636963,428.312378 467.279297,406.837250 480.846527,383.039276 
	C492.993774,361.732056 501.842834,338.934143 506.947662,314.846466 
	C508.629425,306.910828 509.645538,298.835083 511.046753,290.837555 
	C511.202271,289.949982 511.889465,289.155579 512.665039,288.658997 
	C513.000000,363.593719 513.000000,438.187408 513.000000,513.000000 
	C438.645905,513.000000 364.291626,513.000000 289.468658,513.000000 
z"/>
<path fill="#000000" opacity="1.000000" stroke="none" 
	d="
M0.999999,290.468658 
	C1.663987,290.617676 2.834661,291.173126 2.919196,291.861938 
	C6.878714,324.126038 16.957020,354.464172 33.143852,382.514679 
	C40.974972,396.085388 50.566345,408.695679 59.983143,421.274872 
	C65.489128,428.629944 71.773705,435.545410 78.485001,441.828766 
	C100.976395,462.886017 125.993507,480.138184 154.507172,492.359070 
	C173.073303,500.316467 192.308014,505.604095 211.909393,509.905182 
	C216.458435,510.903381 221.088669,511.531433 225.340775,512.664917 
	C150.406464,513.000000 75.812927,513.000000 1.000000,513.000000 
	C1.000000,438.979248 1.000000,364.958282 0.999999,290.468658 
z"/>
<path fill="#000000" opacity="1.000000" stroke="none" 
	d="
M223.531342,1.000002 
	C223.376099,1.664051 222.813721,2.835053 222.119446,2.919310 
	C190.004761,6.816688 159.820419,16.895391 131.868149,32.890945 
	C118.121216,40.757557 105.161247,50.225243 92.676804,60.027592 
	C61.741505,84.316902 39.451519,115.514641 23.086683,151.000427 
	C14.532730,169.548981 8.516948,189.001556 4.964180,209.175507 
	C4.047586,214.380264 2.767435,219.520996 1.327146,224.345566 
	C1.000000,149.739624 1.000000,75.479248 1.000000,1.000000 
	C75.020752,1.000000 149.041718,1.000000 223.531342,1.000002 
z"/>
<path fill="#FFFFFF" opacity="1.000000" stroke="none" 
	d="
M301.114746,346.000000 
	C301.114868,353.782135 301.114868,361.064301 301.114868,368.665344 
	C283.910797,368.665344 267.344666,368.665344 250.165833,368.665344 
	C250.165833,312.316254 250.165833,256.110626 250.165833,199.124954 
	C236.639740,202.795120 223.870590,206.259903 210.362793,209.925110 
	C206.213760,195.385559 202.133240,181.086136 197.940720,166.394257 
	C200.013687,165.532486 201.792496,164.707367 203.629395,164.042755 
	C219.908539,158.152679 236.195023,152.282883 252.489059,146.434143 
	C254.046738,145.875000 255.667450,145.110794 257.263672,145.099182 
	C271.568542,144.995102 285.874451,145.038452 301.114655,145.038452 
	C301.114655,212.090256 301.114655,278.795135 301.114746,346.000000 
z"/>
</svg>