<svg version="1.1" id="Layer_1" xmlns="http://www.w3.org/2000/svg" xmlns:xlink="http://www.w3.org/1999/xlink" x="0px" y="0px"
	 width="100%" viewBox="0 0 512 512" enable-background="new 0 0 512 512" xml:space="preserve">
<path fill="#F59B90" opacity="1.000000" stroke="none" 
	d="
M289.000000,513.000000 
	C267.979095,513.000000 246.958206,513.000000 225.809448,512.664917 
	C221.088715,511.531403 216.458481,510.903320 211.909454,509.905151 
	C192.308105,505.604004 173.073395,500.316467 154.507278,492.359039 
	C125.993614,480.138153 100.976501,462.885986 78.485085,441.828735 
	C71.773781,435.545410 65.489197,428.629944 59.983208,421.274872 
	C50.566433,408.695648 40.975052,396.085327 33.143917,382.514618 
	C16.957050,354.464111 6.878711,324.125946 2.919241,291.861847 
	C2.834716,291.173065 1.664007,290.617645 1.000001,290.000000 
	C1.000000,268.312439 1.000000,246.624878 1.327143,224.814224 
	C2.767448,219.520981 4.047626,214.380249 4.964224,209.175476 
	C8.517007,189.001541 14.532808,169.548981 23.086750,151.000443 
	C39.451569,115.514618 61.741596,84.316902 92.676895,60.027565 
	C105.161331,50.225208 118.121307,40.757511 131.868256,32.890934 
	C159.820557,16.895460 190.004807,6.816606 222.119522,2.919353 
	C222.813766,2.835104 223.376114,1.664063 224.000000,1.000000 
	C245.354233,1.000000 266.708466,1.000000 288.190430,1.335378 
	C289.155975,2.111065 289.950592,2.797641 290.838257,2.953219 
	C298.832458,4.354332 306.902313,5.380215 314.837585,7.050282 
	C338.942841,12.123502 361.745728,21.003111 383.049438,33.146145 
	C406.402252,46.457146 427.476471,62.803608 445.678131,82.921547 
	C459.329102,98.009682 471.417480,114.107170 481.223114,131.805237 
	C496.994629,160.270950 507.516296,190.584747 511.081757,223.117950 
	C511.157288,223.807098 512.335938,224.375351 513.000000,225.000000 
	C513.000000,246.020889 513.000000,267.041779 512.665039,288.190308 
	C511.889435,289.155670 511.202240,289.950165 511.046692,290.837830 
	C509.645477,298.835358 508.629303,306.911072 506.947571,314.846710 
	C501.843018,338.934479 492.993469,361.732269 480.846313,383.039459 
	C467.279205,406.837433 450.636658,428.312408 430.010315,446.692688 
	C415.211609,459.879822 399.553406,471.735992 382.232239,481.242126 
	C353.696960,496.902771 323.425720,507.521362 290.882751,511.081726 
	C290.193451,511.157135 289.624878,512.335938 289.000000,513.000000 
M328.007355,179.238663 
	C328.007355,167.302795 328.007355,155.366913 328.007355,143.344894 
	C326.505280,143.116409 325.705872,142.888763 324.906342,142.888367 
	C279.245758,142.866165 233.585083,142.895096 187.924698,142.796326 
	C184.289124,142.788452 183.946640,144.539093 183.967010,147.427383 
	C184.056335,160.091751 184.209244,172.762192 183.895050,185.419418 
	C183.782455,189.955399 185.268967,190.983337 189.565201,190.947098 
	C212.727173,190.751755 235.891678,190.848846 259.055298,190.866562 
	C260.905762,190.867981 262.756073,191.032486 265.359406,191.157318 
	C263.943390,193.113647 263.209595,194.206619 262.397308,195.237717 
	C251.158936,209.503433 239.992889,223.827621 228.597580,237.966995 
	C226.132950,241.025131 225.599319,243.265793 228.091309,246.639664 
	C232.838165,253.066406 237.306488,259.724426 241.483902,266.535767 
	C243.661285,270.086029 246.210144,271.187073 250.334488,271.416351 
	C257.408844,271.809570 264.712677,272.381226 271.392120,274.524017 
	C280.491882,277.443329 285.008057,284.978546 285.706329,294.372620 
	C286.349487,303.024689 283.641327,310.588745 276.250641,315.732056 
	C258.446655,328.122192 231.743439,320.884735 222.628555,301.317444 
	C222.155212,300.301300 221.607254,299.319946 220.843231,297.834930 
	C206.103409,306.380096 191.643372,314.763062 175.924362,323.875916 
	C181.562210,331.802521 185.983963,339.767120 192.026215,346.212555 
	C218.451355,374.401031 269.648621,379.192108 304.344696,358.237701 
	C344.223511,334.153259 352.809570,265.206024 300.865601,238.682312 
	C297.349945,236.887131 293.740387,235.275879 289.701324,233.353943 
	C291.337250,231.198975 292.698120,229.351944 294.114838,227.548813 
	C304.408478,214.447586 314.808807,201.428116 324.920013,188.187729 
	C326.590027,186.000885 327.009583,182.859116 328.007355,179.238663 
z"/>
<path fill="#000000" opacity="1.000000" stroke="none" 
	d="
M513.000000,224.531342 
	C512.335938,224.375351 511.157288,223.807098 511.081757,223.117950 
	C507.516296,190.584747 496.994629,160.270950 481.223114,131.805237 
	C471.417480,114.107170 459.329102,98.009682 445.678131,82.921547 
	C427.476471,62.803608 406.402252,46.457146 383.049438,33.146145 
	C361.745728,21.003111 338.942841,12.123502 314.837585,7.050282 
	C306.902313,5.380215 298.832458,4.354332 290.838257,2.953219 
	C289.950592,2.797641 289.155975,2.111065 288.659119,1.335378 
	C363.593719,1.000000 438.187408,1.000000 513.000000,1.000000 
	C513.000000,75.354088 513.000000,149.708389 513.000000,224.531342 
z"/>
<path fill="#000000" opacity="1.000000" stroke="none" 
	d="
M289.468658,513.000000 
	C289.624878,512.335938 290.193451,511.157135 290.882751,511.081726 
	C323.425720,507.521362 353.696960,496.902771 382.232239,481.242126 
	C399.553406,471.735992 415.211609,459.879822 430.010315,446.692688 
	C450.636658,428.312408 467.279205,406.837433 480.846313,383.039459 
	C492.993469,361.732269 501.843018,338.934479 506.947571,314.846710 
	C508.629303,306.911072 509.645477,298.835358 511.046692,290.837830 
	C511.202240,289.950165 511.889435,289.155670 512.665039,288.658997 
	C513.000000,363.593719 513.000000,438.187408 513.000000,513.000000 
	C438.645905,513.000000 364.291626,513.000000 289.468658,513.000000 
z"/>
<path fill="#000000" opacity="1.000000" stroke="none" 
	d="
M1.000001,290.468658 
	C1.664007,290.617645 2.834716,291.173065 2.919241,291.861847 
	C6.878711,324.125946 16.957050,354.464111 33.143917,382.514618 
	C40.975052,396.085327 50.566433,408.695648 59.983208,421.274872 
	C65.489197,428.629944 71.773781,435.545410 78.485085,441.828735 
	C100.976501,462.885986 125.993614,480.138153 154.507278,492.359039 
	C173.073395,500.316467 192.308105,505.604004 211.909454,509.905151 
	C216.458481,510.903320 221.088715,511.531403 225.340790,512.664917 
	C150.406464,513.000000 75.812927,513.000000 1.000000,513.000000 
	C1.000000,438.979248 1.000000,364.958282 1.000001,290.468658 
z"/>
<path fill="#000000" opacity="1.000000" stroke="none" 
	d="
M223.531342,1.000000 
	C223.376114,1.664063 222.813766,2.835104 222.119522,2.919353 
	C190.004807,6.816606 159.820557,16.895460 131.868256,32.890934 
	C118.121307,40.757511 105.161331,50.225208 92.676895,60.027565 
	C61.741596,84.316902 39.451569,115.514618 23.086750,151.000443 
	C14.532808,169.548981 8.517007,189.001541 4.964224,209.175476 
	C4.047626,214.380249 2.767448,219.520981 1.327143,224.345566 
	C1.000000,149.739624 1.000000,75.479248 1.000000,1.000000 
	C75.020752,1.000000 149.041718,1.000000 223.531342,1.000000 
z"/>
<path fill="#FFFFFE" opacity="1.000000" stroke="none" 
	d="
M328.007202,179.698669 
	C327.009583,182.859116 326.590027,186.000885 324.920013,188.187729 
	C314.808807,201.428116 304.408478,214.447586 294.114838,227.548813 
	C292.698120,229.351944 291.337250,231.198975 289.701324,233.353943 
	C293.740387,235.275879 297.349945,236.887131 300.865601,238.682312 
	C352.809570,265.206024 344.223511,334.153259 304.344696,358.237701 
	C269.648621,379.192108 218.451355,374.401031 192.026215,346.212555 
	C185.983963,339.767120 181.562210,331.802521 175.924362,323.875916 
	C191.643372,314.763062 206.103409,306.380096 220.843231,297.834930 
	C221.607254,299.319946 222.155212,300.301300 222.628555,301.317444 
	C231.743439,320.884735 258.446655,328.122192 276.250641,315.732056 
	C283.641327,310.588745 286.349487,303.024689 285.706329,294.372620 
	C285.008057,284.978546 280.491882,277.443329 271.392120,274.524017 
	C264.712677,272.381226 257.408844,271.809570 250.334488,271.416351 
	C246.210144,271.187073 243.661285,270.086029 241.483902,266.535767 
	C237.306488,259.724426 232.838165,253.066406 228.091309,246.639664 
	C225.599319,243.265793 226.132950,241.025131 228.597580,237.966995 
	C239.992889,223.827621 251.158936,209.503433 262.397308,195.237717 
	C263.209595,194.206619 263.943390,193.113647 265.359406,191.157318 
	C262.756073,191.032486 260.905762,190.867981 259.055298,190.866562 
	C235.891678,190.848846 212.727173,190.751755 189.565201,190.947098 
	C185.268967,190.983337 183.782455,189.955399 183.895050,185.419418 
	C184.209244,172.762192 184.056335,160.091751 183.967010,147.427383 
	C183.946640,144.539093 184.289124,142.788452 187.924698,142.796326 
	C233.585083,142.895096 279.245758,142.866165 324.906342,142.888367 
	C325.705872,142.888763 326.505280,143.116409 328.007355,143.344894 
	C328.007355,155.366913 328.007355,167.302795 328.007202,179.698669 
z"/>
</svg>