<svg version="1.1" id="Layer_1" xmlns="http://www.w3.org/2000/svg" xmlns:xlink="http://www.w3.org/1999/xlink" x="0px" y="0px"
	 width="100%" viewBox="0 0 512 512" enable-background="new 0 0 512 512" xml:space="preserve">
<path fill="#FFF8F5" opacity="1.000000" stroke="none" 
	d="
M286.000000,513.000000 
	C266.979095,513.000000 247.958206,513.000000 228.767395,512.639404 
	C227.595856,511.852844 226.630814,511.224030 225.586349,511.035675 
	C220.804321,510.173340 215.935959,509.708466 211.214737,508.604187 
	C189.358887,503.492340 168.729202,495.237335 149.411591,483.796387 
	C127.692757,470.933380 109.197525,454.212006 93.445633,434.684204 
	C80.996490,419.250885 71.257698,402.025909 63.822575,383.521851 
	C57.857014,368.675079 52.910519,353.490631 51.198067,337.635956 
	C49.607273,322.907593 48.931683,307.985718 49.238705,293.177765 
	C49.473431,281.856659 51.089111,270.412537 53.471081,259.319611 
	C58.180862,237.385971 66.717789,216.800339 78.155510,197.478592 
	C91.013130,175.758209 107.728287,157.248459 127.251892,141.496826 
	C142.680252,129.049240 159.945801,119.410820 178.400833,111.840080 
	C198.148270,103.739143 218.629410,98.467415 239.770142,97.276131 
	C257.642365,96.269035 275.609406,96.453369 293.526825,99.773674 
	C314.588074,103.676559 334.521484,110.256477 353.441986,120.089951 
	C374.043579,130.797119 392.207855,144.643112 408.229889,161.550018 
	C423.883362,178.068069 436.341339,196.527390 446.072601,217.044617 
	C456.486603,239.001266 462.909790,262.142731 464.704956,286.166473 
	C466.163544,305.685883 466.069824,325.497101 461.906891,344.854034 
	C457.611725,364.825928 451.133759,384.036499 441.476593,402.207062 
	C430.792633,422.309601 417.276733,440.023926 400.863373,455.780365 
	C384.206818,471.770325 365.516052,484.468018 344.594849,494.170380 
	C326.500244,502.561920 307.733765,508.370575 287.979980,511.074524 
	C287.245880,511.175018 286.656708,512.334167 286.000000,513.000000 
M267.001770,299.084900 
	C267.001770,266.495514 267.001770,233.906128 267.001770,201.240326 
	C255.446426,201.240326 244.380768,201.240326 233.373459,201.240326 
	C233.209076,201.775055 233.036530,202.074417 233.036377,202.373856 
	C233.016006,239.849838 232.970657,277.325958 233.120438,314.801300 
	C233.127335,316.527130 234.458939,318.863190 235.902527,319.875305 
	C257.022278,334.682251 278.262909,349.316895 299.481628,363.982574 
	C316.720947,375.897827 333.944641,387.836304 351.276123,399.616058 
	C352.307434,400.317078 355.098267,400.317657 355.615234,399.598358 
	C361.533112,391.364777 367.168457,382.928131 373.094391,374.229706 
	C338.045624,349.854614 303.003296,325.484039 267.815735,300.665527 
	C267.675598,300.368774 267.456879,300.150909 267.001770,299.084900 
z"/>
<path fill="#000000" opacity="1.000000" stroke="none" 
	d="
M286.468658,513.000000 
	C286.656708,512.334167 287.245880,511.175018 287.979980,511.074524 
	C307.733765,508.370575 326.500244,502.561920 344.594849,494.170380 
	C365.516052,484.468018 384.206818,471.770325 400.863373,455.780365 
	C417.276733,440.023926 430.792633,422.309601 441.476593,402.207062 
	C451.133759,384.036499 457.611725,364.825928 461.906891,344.854034 
	C466.069824,325.497101 466.163544,305.685883 464.704956,286.166473 
	C462.909790,262.142731 456.486603,239.001266 446.072601,217.044617 
	C436.341339,196.527390 423.883362,178.068069 408.229889,161.550018 
	C392.207855,144.643112 374.043579,130.797119 353.441986,120.089951 
	C334.521484,110.256477 314.588074,103.676559 293.526825,99.773674 
	C275.609406,96.453369 257.642365,96.269035 239.770142,97.276131 
	C218.629410,98.467415 198.148270,103.739143 178.400833,111.840080 
	C159.945801,119.410820 142.680252,129.049240 127.251892,141.496826 
	C107.728287,157.248459 91.013130,175.758209 78.155510,197.478592 
	C66.717789,216.800339 58.180862,237.385971 53.471081,259.319611 
	C51.089111,270.412537 49.473431,281.856659 49.238705,293.177765 
	C48.931683,307.985718 49.607273,322.907593 51.198067,337.635956 
	C52.910519,353.490631 57.857014,368.675079 63.822575,383.521851 
	C71.257698,402.025909 80.996490,419.250885 93.445633,434.684204 
	C109.197525,454.212006 127.692757,470.933380 149.411591,483.796387 
	C168.729202,495.237335 189.358887,503.492340 211.214737,508.604187 
	C215.935959,509.708466 220.804321,510.173340 225.586349,511.035675 
	C226.630814,511.224030 227.595856,511.852844 228.298737,512.639404 
	C152.368225,513.000000 76.736450,513.000000 1.052335,513.000000 
	C1.052335,342.446930 1.052335,171.893845 1.052335,1.000000 
	C70.687187,1.000000 140.374939,1.000000 210.818481,1.292984 
	C207.280548,4.670846 203.227890,8.242722 203.098068,13.854465 
	C202.798630,26.798639 203.003006,39.754471 203.003006,53.631416 
	C210.523682,53.631416 217.655426,53.631416 225.144531,53.631416 
	C225.144531,63.300575 225.144531,72.046547 225.144531,81.505905 
	C246.568130,78.079681 267.621155,78.229225 289.075134,81.458542 
	C289.075134,71.797012 289.075134,63.058174 289.075134,54.348930 
	C296.584137,53.977909 303.707581,53.625938 311.000000,53.265621 
	C311.000000,40.622917 310.844452,28.819267 311.062744,17.022535 
	C311.179596,10.707632 309.102844,5.939524 303.474060,2.836529 
	C303.094025,2.627041 303.147919,1.630490 303.000000,0.999999 
	C372.967743,1.000000 442.935455,1.000000 512.951599,1.000000 
	C512.951599,171.555710 512.951599,342.111450 512.951599,513.000000 
	C437.646088,513.000000 362.291718,513.000000 286.468658,513.000000 
M352.966309,74.353806 
	C350.184662,78.986061 347.403046,83.618309 344.512054,88.432709 
	C365.093231,100.287636 385.103790,111.813873 405.218079,123.399849 
	C411.296173,113.051941 417.231201,103.139854 422.970428,93.115685 
	C427.521179,85.167389 425.024139,74.558876 417.145477,69.702911 
	C406.759460,63.301544 396.214691,57.134228 385.518372,51.266998 
	C375.994568,46.042923 366.084442,51.229565 361.989044,58.173801 
	C358.968842,63.294945 356.018097,68.457062 352.966309,74.353806 
z"/>
<path fill="#FFF8F5" opacity="1.000000" stroke="none" 
	d="
M302.531342,0.999999 
	C303.147919,1.630490 303.094025,2.627041 303.474060,2.836529 
	C309.102844,5.939524 311.179596,10.707632 311.062744,17.022535 
	C310.844452,28.819267 311.000000,40.622917 311.000000,53.265621 
	C303.707581,53.625938 296.584137,53.977909 289.075134,54.348930 
	C289.075134,63.058174 289.075134,71.797012 289.075134,81.458542 
	C267.621155,78.229225 246.568130,78.079681 225.144531,81.505905 
	C225.144531,72.046547 225.144531,63.300575 225.144531,53.631416 
	C217.655426,53.631416 210.523682,53.631416 203.003006,53.631416 
	C203.003006,39.754471 202.798630,26.798639 203.098068,13.854465 
	C203.227890,8.242722 207.280548,4.670846 211.287140,1.292984 
	C241.354233,1.000000 271.708466,1.000000 302.531342,0.999999 
z"/>
<path fill="#000000" opacity="1.000000" stroke="none" 
	d="
M267.960968,301.113464 
	C303.003296,325.484039 338.045624,349.854614 373.094391,374.229706 
	C367.168457,382.928131 361.533112,391.364777 355.615234,399.598358 
	C355.098267,400.317657 352.307434,400.317078 351.276123,399.616058 
	C333.944641,387.836304 316.720947,375.897827 299.481628,363.982574 
	C278.262909,349.316895 257.022278,334.682251 235.902527,319.875305 
	C234.458939,318.863190 233.127335,316.527130 233.120438,314.801300 
	C232.970657,277.325958 233.016006,239.849838 233.036377,202.373856 
	C233.036530,202.074417 233.209076,201.775055 233.373459,201.240326 
	C244.380768,201.240326 255.446426,201.240326 267.001770,201.240326 
	C267.001770,233.906128 267.001770,266.495514 267.035187,299.817108 
	C267.366058,300.737366 267.663513,300.925415 267.960968,301.113464 
z"/>
<path fill="#FFFFFF" opacity="1.000000" stroke="none" 
	d="
M267.888367,300.889496 
	C267.663513,300.925415 267.366058,300.737366 267.114075,300.280640 
	C267.456879,300.150909 267.675598,300.368774 267.888367,300.889496 
z"/>
<path fill="#FFF8F5" opacity="1.000000" stroke="none" 
	d="
M353.001373,73.977371 
	C356.018097,68.457062 358.968842,63.294945 361.989044,58.173801 
	C366.084442,51.229565 375.994568,46.042923 385.518372,51.266998 
	C396.214691,57.134228 406.759460,63.301544 417.145477,69.702911 
	C425.024139,74.558876 427.521179,85.167389 422.970428,93.115685 
	C417.231201,103.139854 411.296173,113.051941 405.218079,123.399849 
	C385.103790,111.813873 365.093231,100.287636 344.512054,88.432709 
	C347.403046,83.618309 350.184662,78.986061 353.001373,73.977371 
z"/>
</svg>