<svg version="1.1" id="Layer_1" xmlns="http://www.w3.org/2000/svg" xmlns:xlink="http://www.w3.org/1999/xlink" x="0px" y="0px"
	 width="100%" viewBox="0 0 512 512" enable-background="new 0 0 512 512" xml:space="preserve">
<path fill="#F59B90" opacity="1.000000" stroke="none" 
	d="
M225.000000,0.999998 
	C246.020889,1.000000 267.041779,1.000000 288.190308,1.334990 
	C289.154907,2.110589 289.945251,2.766801 290.835907,2.959548 
	C304.736877,5.967898 318.787811,8.395434 332.527588,12.008664 
	C350.253693,16.670214 366.844238,24.302475 382.823883,33.314434 
	C399.178833,42.538059 414.681000,53.071388 428.189087,66.009293 
	C440.068787,77.387581 451.368439,89.553726 461.609863,102.418297 
	C477.620056,122.529144 489.550323,145.113083 498.153931,169.419449 
	C504.336395,186.885590 509.238525,204.622360 511.083832,223.123779 
	C511.151886,223.806107 512.335999,224.377106 513.000000,225.000000 
	C513.000000,246.020889 513.000000,267.041779 512.666748,288.187744 
	C511.891693,289.148804 511.202240,289.941406 511.046997,290.827576 
	C509.645569,298.827026 508.690216,306.920868 506.938690,314.839813 
	C500.848846,342.373047 490.229004,368.161133 475.366150,392.070099 
	C461.169189,414.907928 443.560059,434.893646 423.135834,452.466248 
	C409.153351,464.496460 394.089355,474.942596 377.852905,483.493042 
	C350.572327,497.859619 321.747437,507.777740 290.881256,511.082214 
	C290.193634,511.155853 289.624451,512.336060 289.000000,513.000000 
	C267.979095,513.000000 246.958206,513.000000 225.809921,512.665771 
	C224.844971,511.890472 224.046280,511.179993 223.163467,511.052643 
	C217.834442,510.283966 212.400192,510.043488 207.158798,508.902283 
	C180.796844,503.162537 155.591965,494.363647 131.950089,481.074249 
	C105.045425,465.950806 81.846642,446.541351 61.679916,423.265930 
	C49.572815,409.292542 39.137451,394.167725 30.548820,377.898712 
	C16.142975,350.610413 6.241158,321.765594 2.917984,290.884949 
	C2.843821,290.195801 1.664041,289.625671 0.999999,289.000000 
	C1.000000,267.645782 1.000000,246.291550 1.330132,224.809326 
	C2.094898,224.014099 2.793924,223.393982 2.922564,222.672226 
	C4.004219,216.603134 4.854162,210.491104 6.011852,204.437515 
	C11.256970,177.010544 21.313271,151.327637 35.387012,127.332176 
	C50.084610,102.273079 68.799477,80.471527 90.890396,61.505077 
	C105.018661,49.375061 120.224884,38.817837 136.626755,30.222969 
	C163.763123,16.003035 192.457336,6.237771 223.120178,2.917922 
	C223.807938,2.843457 224.376068,1.664008 225.000000,0.999998 
M261.924622,393.850128 
	C294.379028,393.881165 326.833496,393.890045 359.287750,393.980774 
	C362.219635,393.988983 363.932129,393.536682 363.903931,389.963684 
	C363.769836,372.988159 363.769470,356.010345 363.905334,339.034851 
	C363.933472,335.520142 362.353729,334.947357 359.355652,334.964600 
	C343.045319,335.058380 326.734131,334.978271 310.423370,335.016296 
	C293.950989,335.054688 277.478790,335.161133 260.178864,335.150421 
	C258.132019,335.150421 256.085144,335.150421 252.674194,335.150421 
	C256.280945,332.176941 258.670319,330.207092 261.661438,327.887817 
	C262.766418,327.160706 263.917206,326.494080 264.969666,325.697571 
	C286.595398,309.330292 308.458588,293.263794 329.758942,276.483032 
	C352.466370,258.593750 364.173309,234.629822 363.675385,205.800186 
	C363.177795,176.990631 351.514252,152.854843 328.347412,135.136414 
	C308.444885,119.914589 285.461365,115.696152 260.035126,117.831970 
	C255.372177,117.868835 250.700485,117.734703 246.047821,117.972717 
	C227.749786,118.908791 211.056671,124.627312 196.630661,135.961029 
	C169.694992,157.122894 159.777100,186.313843 158.088257,219.262589 
	C157.904572,222.845932 159.724197,223.340073 162.654800,223.327362 
	C178.976608,223.256577 195.300674,223.163620 211.619843,223.383591 
	C215.870377,223.440903 216.432724,221.736115 217.127151,217.951248 
	C218.672333,209.529404 220.373428,200.919708 223.683228,193.093811 
	C227.664993,183.679062 235.693237,178.091934 246.073029,176.790039 
	C251.005661,176.171371 256.022156,176.221329 261.923523,176.130432 
	C265.912415,176.160141 269.903168,176.121918 273.889801,176.233002 
	C283.792145,176.508896 292.513245,179.299744 298.568146,187.842728 
	C308.906158,202.428833 306.682922,219.672256 292.713226,230.834763 
	C282.210632,239.226852 271.479126,247.332367 260.214447,255.870132 
	C229.816284,278.841919 199.382599,301.767212 169.112640,324.906708 
	C167.390030,326.223541 166.162521,329.283173 166.134552,331.549316 
	C165.900482,350.518188 165.993622,369.491241 166.015381,388.462982 
	C166.017227,390.063599 166.217209,391.663971 166.351486,393.654968 
	C198.185333,393.654968 229.595413,393.654968 261.924622,393.850128 
z"/>
<path fill="#000000" opacity="1.000000" stroke="none" 
	d="
M513.000000,224.531342 
	C512.335999,224.377106 511.151886,223.806107 511.083832,223.123779 
	C509.238525,204.622360 504.336395,186.885590 498.153931,169.419449 
	C489.550323,145.113083 477.620056,122.529144 461.609863,102.418297 
	C451.368439,89.553726 440.068787,77.387581 428.189087,66.009293 
	C414.681000,53.071388 399.178833,42.538059 382.823883,33.314434 
	C366.844238,24.302475 350.253693,16.670214 332.527588,12.008664 
	C318.787811,8.395434 304.736877,5.967898 290.835907,2.959548 
	C289.945251,2.766801 289.154907,2.110589 288.658936,1.334990 
	C363.593719,1.000000 438.187408,1.000000 513.000000,1.000000 
	C513.000000,75.354088 513.000000,149.708389 513.000000,224.531342 
z"/>
<path fill="#000000" opacity="1.000000" stroke="none" 
	d="
M0.999999,289.468658 
	C1.664041,289.625671 2.843821,290.195801 2.917984,290.884949 
	C6.241158,321.765594 16.142975,350.610413 30.548820,377.898712 
	C39.137451,394.167725 49.572815,409.292542 61.679916,423.265930 
	C81.846642,446.541351 105.045425,465.950806 131.950089,481.074249 
	C155.591965,494.363647 180.796844,503.162537 207.158798,508.902283 
	C212.400192,510.043488 217.834442,510.283966 223.163467,511.052643 
	C224.046280,511.179993 224.844971,511.890472 225.341263,512.665771 
	C150.406296,513.000000 75.812599,513.000000 1.000000,513.000000 
	C1.000000,438.645905 1.000000,364.291626 0.999999,289.468658 
z"/>
<path fill="#000000" opacity="1.000000" stroke="none" 
	d="
M289.468658,513.000000 
	C289.624451,512.336060 290.193634,511.155853 290.881256,511.082214 
	C321.747437,507.777740 350.572327,497.859619 377.852905,483.493042 
	C394.089355,474.942596 409.153351,464.496460 423.135834,452.466248 
	C443.560059,434.893646 461.169189,414.907928 475.366150,392.070099 
	C490.229004,368.161133 500.848846,342.373047 506.938690,314.839813 
	C508.690216,306.920868 509.645569,298.827026 511.046997,290.827576 
	C511.202240,289.941406 511.891693,289.148804 512.666748,288.656403 
	C513.000000,363.593719 513.000000,438.187408 513.000000,513.000000 
	C438.645905,513.000000 364.291626,513.000000 289.468658,513.000000 
z"/>
<path fill="#000000" opacity="1.000000" stroke="none" 
	d="
M224.531342,0.999998 
	C224.376068,1.664008 223.807938,2.843457 223.120178,2.917922 
	C192.457336,6.237771 163.763123,16.003035 136.626755,30.222969 
	C120.224884,38.817837 105.018661,49.375061 90.890396,61.505077 
	C68.799477,80.471527 50.084610,102.273079 35.387012,127.332176 
	C21.313271,151.327637 11.256970,177.010544 6.011852,204.437515 
	C4.854162,210.491104 4.004219,216.603134 2.922564,222.672226 
	C2.793924,223.393982 2.094898,224.014099 1.330132,224.340668 
	C1.000000,149.739456 1.000000,75.478920 1.000000,1.000000 
	C75.354088,1.000000 149.708389,1.000000 224.531342,0.999998 
z"/>
<path fill="#FFFFFF" opacity="1.000000" stroke="none" 
	d="
M260.965149,117.902817 
	C285.461365,115.696152 308.444885,119.914589 328.347412,135.136414 
	C351.514252,152.854843 363.177795,176.990631 363.675385,205.800186 
	C364.173309,234.629822 352.466370,258.593750 329.758942,276.483032 
	C308.458588,293.263794 286.595398,309.330292 264.969666,325.697571 
	C263.917206,326.494080 262.766418,327.160706 261.346008,327.574768 
	C260.970215,303.362976 260.909882,279.464203 260.849518,255.565445 
	C271.479126,247.332367 282.210632,239.226852 292.713226,230.834763 
	C306.682922,219.672256 308.906158,202.428833 298.568146,187.842728 
	C292.513245,179.299744 283.792145,176.508896 273.889801,176.233002 
	C269.903168,176.121918 265.912415,176.160141 261.461761,175.583267 
	C260.988403,155.991669 260.976776,136.947250 260.965149,117.902817 
z"/>
<path fill="#F8FEFA" opacity="1.000000" stroke="none" 
	d="
M260.531982,255.717789 
	C260.909882,279.464203 260.970215,303.362976 261.045166,327.749481 
	C258.670319,330.207092 256.280945,332.176941 252.674194,335.150421 
	C256.085144,335.150421 258.132019,335.150421 260.591400,335.645508 
	C261.004456,355.312042 261.004974,374.483521 261.005493,393.654968 
	C229.595413,393.654968 198.185333,393.654968 166.351486,393.654968 
	C166.217209,391.663971 166.017227,390.063599 166.015381,388.462982 
	C165.993622,369.491241 165.900482,350.518188 166.134552,331.549316 
	C166.162521,329.283173 167.390030,326.223541 169.112640,324.906708 
	C199.382599,301.767212 229.816284,278.841919 260.531982,255.717789 
z"/>
<path fill="#F8FFFB" opacity="1.000000" stroke="none" 
	d="
M260.500122,117.867393 
	C260.976776,136.947250 260.988403,155.991669 261.000336,175.502258 
	C256.022156,176.221329 251.005661,176.171371 246.073029,176.790039 
	C235.693237,178.091934 227.664993,183.679062 223.683228,193.093811 
	C220.373428,200.919708 218.672333,209.529404 217.127151,217.951248 
	C216.432724,221.736115 215.870377,223.440903 211.619843,223.383591 
	C195.300674,223.163620 178.976608,223.256577 162.654800,223.327362 
	C159.724197,223.340073 157.904572,222.845932 158.088257,219.262589 
	C159.777100,186.313843 169.694992,157.122894 196.630661,135.961029 
	C211.056671,124.627312 227.749786,118.908791 246.047821,117.972717 
	C250.700485,117.734703 255.372177,117.868835 260.500122,117.867393 
z"/>
<path fill="#FFFFFF" opacity="1.000000" stroke="none" 
	d="
M261.465057,393.752563 
	C261.004974,374.483521 261.004456,355.312042 261.005219,335.689209 
	C277.478790,335.161133 293.950989,335.054688 310.423370,335.016296 
	C326.734131,334.978271 343.045319,335.058380 359.355652,334.964600 
	C362.353729,334.947357 363.933472,335.520142 363.905334,339.034851 
	C363.769470,356.010345 363.769836,372.988159 363.903931,389.963684 
	C363.932129,393.536682 362.219635,393.988983 359.287750,393.980774 
	C326.833496,393.890045 294.379028,393.881165 261.465057,393.752563 
z"/>
</svg>